<svg width="71" height="71" viewBox="0 0 71 71" fill="none" xmlns="http://www.w3.org/2000/svg">
<g id="css">
<path id="path1173" d="M53.0907 61.195L35.3874 65.9618L17.6839 61.195L13.5986 16.9368H57.1764L53.0907 61.195Z" fill="#2062AF"/>
<path id="path1175" d="M35.3875 20.5219V62.1601L35.4275 62.171L49.754 58.3132L53.0608 20.5219H35.3875Z" fill="#3C9CD7"/>
<path id="path1177" d="M25.34 10.4345V7.80021H29.1834V4.91772H22.4575V13.0648H29.1834V10.4345H25.34ZM36.0971 7.80021H38.7841V4.91772H32.0577V7.80021C32.9576 8.70012 33.4269 9.13085 34.7284 10.4324C33.9676 10.4324 32.0577 10.4351 32.0577 10.435V13.0648H38.7841V10.4345L36.0971 7.80021ZM45.6307 7.80021H48.3176V4.91772H41.5909V7.80021C42.4908 8.70012 42.9604 9.13085 44.2619 10.4324C43.5013 10.4324 41.5909 10.4351 41.5909 10.435V13.0648H48.3177V10.4345L45.6307 7.80021Z" fill="black"/>
<path id="path1202" opacity="0.273" d="M35.3713 36.8651H22.7004L23.1206 42.0898L35.3713 42.1289V36.8651ZM35.3713 50.8406L35.3112 50.8573L29.3661 49.3561L29.0058 45.0322H23.4812L24.2017 53.3795L35.3713 56.6824V50.8406Z" fill="black"/>
<path id="path1211" opacity="0.273" d="M35.3715 25.9358H21.5596L22.2201 31.2804H35.3715V25.9358Z" fill="black"/>
</g>
</svg>
