<svg width="86" height="28" viewBox="0 0 86 28" fill="none" xmlns="http://www.w3.org/2000/svg">
<g id="gatsby">
<path id="path1089" d="M51.2502 12.4025H53.5025V22.151H51.2502V20.8837C50.4458 22.346 49.4 22.4435 48.7565 22.4435C46.2629 22.4435 44.6541 20.1038 44.6541 17.2768C44.6541 14.3522 46.2629 12.1101 48.5956 12.1101C49.2392 12.1101 50.4458 12.2076 51.1697 13.6698V12.4025H51.2502ZM47.0673 17.2768C47.0673 18.8365 47.9521 20.0064 49.3196 20.0064C50.6066 20.0064 51.5719 18.8365 51.5719 17.2768C51.5719 15.717 50.6871 14.5472 49.3196 14.5472C48.0326 14.5472 47.0673 15.717 47.0673 17.2768ZM57.9266 14.7422V22.151H55.6743V14.7422H54.7895V12.4025H55.6743V9.08805H57.9266V12.4025H59.455V14.7422H57.9266ZM64.764 14.7422C64.2009 14.1573 63.7183 14.0598 63.477 14.0598C62.9139 14.0598 62.5921 14.3522 62.5921 14.8397C62.5921 15.1321 62.6726 15.4246 63.3161 15.717L63.8792 15.912C64.5227 16.2044 65.488 16.4969 65.8902 17.2768C66.1315 17.6667 66.2923 18.2516 66.2923 18.934C66.2923 19.8114 66.051 20.6887 65.4075 21.3711C64.764 22.0535 63.9596 22.4435 62.9943 22.4435C61.3051 22.4435 60.4203 21.4686 59.8572 20.7862L61.0638 19.129C61.5464 19.7139 62.1899 20.2988 62.8335 20.2988C63.477 20.2988 63.9596 19.9089 63.9596 19.2265C63.9596 18.6416 63.5574 18.3491 63.2356 18.2516L62.753 18.0567C62.1899 17.7642 61.5464 17.4717 61.0638 16.8868C60.6616 16.3994 60.4203 15.8145 60.4203 15.0346C60.4203 14.0598 60.8225 13.2799 61.2247 12.7925C61.8682 12.2076 62.6726 12.1101 63.3161 12.1101C63.8792 12.1101 64.8444 12.2076 65.8902 13.1824L64.764 14.7422ZM69.6708 13.6698C70.4752 12.305 71.6014 12.1101 72.2449 12.1101C74.5776 12.1101 76.1864 14.3522 76.1864 17.2768C76.1864 20.2013 74.5776 22.4435 72.1644 22.4435C71.6818 22.4435 70.4752 22.346 69.5904 20.8837V22.151H67.4185V5.77356H69.6708V13.6698ZM69.4295 17.2768C69.4295 18.8365 70.3143 20.0064 71.6818 20.0064C72.9688 20.0064 73.9341 18.8365 73.9341 17.2768C73.9341 15.717 73.0493 14.5472 71.6818 14.5472C70.3143 14.5472 69.4295 15.717 69.4295 17.2768ZM79.8866 20.6888L76.0255 12.4025H78.68L81.1737 17.9592L83.426 12.4025H86L79.5649 27.3177H76.9908L79.8866 20.6888ZM44.091 14.0598H38.4603V16.7894H41.4365C40.9539 18.6416 39.8277 19.9089 37.7363 19.9089C35.4036 19.9089 33.7143 17.5692 33.7143 14.7422C33.7143 11.9151 35.3231 9.47799 37.6559 9.47799C38.9429 9.47799 40.2299 10.2579 41.0343 11.5252L42.8844 10.0629C41.6778 8.01571 39.7473 6.84589 37.6559 6.84589C34.1165 6.84589 31.2207 10.3553 31.2207 14.7422C31.2207 19.129 33.9556 22.6384 37.6559 22.6384C41.3561 22.6384 44.091 19.129 44.091 14.7422C44.1715 14.4497 44.091 14.2547 44.091 14.0598V14.0598Z" fill="black"/>
<g id="gatsby_2">
<path id="path1091" d="M20.7638 14.3519H15.1331V16.3016H18.9942C18.4311 19.2261 16.6614 21.6632 14.3287 22.6381L5.07813 11.4273C6.0434 8.01536 8.77835 5.57824 11.9155 5.57824C14.3287 5.57824 16.5005 7.04051 17.868 9.28267L19.0746 8.01536C17.4658 5.38327 14.8918 3.62854 11.9155 3.62854C7.73263 3.62854 4.19329 7.23548 3.30846 12.0122L13.9265 24.8802C17.7876 23.7104 20.7638 19.4211 20.7638 14.3519ZM3.06714 14.4494C3.06714 17.1789 3.95197 19.811 5.6412 21.8582C7.33043 23.9054 9.58274 24.9777 11.7546 24.9777L3.06714 14.4494Z" fill="white"/>
<path id="path1093" d="M11.9156 0.704224C5.72174 0.704224 0.654053 6.84577 0.654053 14.3521C0.654053 21.8585 5.72174 28 11.9156 28C18.1094 28 23.1771 21.8585 23.1771 14.3521C23.1771 6.84577 18.1094 0.704224 11.9156 0.704224ZM5.64131 21.9559C3.95207 19.9088 3.06724 17.1792 3.06724 14.5471L11.8352 25.0755C9.58284 24.978 7.33054 24.0031 5.64131 21.9559ZM13.8461 24.783L3.30856 12.0125C4.19339 7.23571 7.73273 3.62877 11.9156 3.62877C14.8919 3.62877 17.4659 5.3835 19.0747 8.01559L17.8681 9.2829C16.5006 7.04074 14.3288 5.57847 11.9156 5.57847C8.77845 5.57847 6.12394 8.01559 5.07823 11.4276L14.3288 22.6383C16.6615 21.6635 18.4312 19.2264 18.9943 16.3018H15.1332V14.3521H20.7639C20.7639 19.4213 17.7877 23.7107 13.8461 24.783Z" fill="#663399"/>
</g>
</g>
</svg>
