<svg width="43" height="61" viewBox="0 0 43 61" fill="none" xmlns="http://www.w3.org/2000/svg">
<g id="html">
<path id="path830" d="M3.9259 56.014L0.0405273 12.4342H42.7349L38.8452 56.0071L21.3615 60.8542L3.9259 56.014Z" fill="#E44D26"/>
<path id="path832" d="M21.3875 57.1493L35.515 53.2323L38.8391 15.9976H21.3875V57.1493Z" fill="#F16529"/>
<path id="path834" d="M21.3876 32.1606H14.3151L13.8266 26.6874H21.3876V21.3424H7.98511L8.11319 22.7764L9.42681 37.5053H21.3876V32.1606ZM21.3876 46.0417L21.3642 46.0481L15.4116 44.4406L15.031 40.178H9.66571L10.4146 48.5702L21.3632 51.6096L21.3876 51.6027V46.0417Z" fill="#EBEBEB"/>
<path id="path836" d="M4.0127 0.591064H6.72883V3.2746H9.21345V0.591064H11.9297V8.71754H9.21345V5.99636H6.72883V8.71754H4.01289L4.0127 0.591064ZM15.5017 3.28605H13.1107V0.591064H20.6106V3.28605H18.2184V8.71754H15.5018V3.28605H15.5017ZM21.8007 0.591064H24.6331L26.3753 3.44654L28.1159 0.591064H30.9492V8.71754H28.2438V4.68953L26.375 7.57896H26.3283L24.4583 4.68953V8.71754H21.8006V0.591064H21.8007ZM32.3008 0.591064H35.0177V6.03149H38.8377V8.71754H32.3008V0.591064Z" fill="black"/>
<path id="path838" d="M21.3691 32.1606V37.5053H27.9509L27.3303 44.4373L21.3691 46.0461V51.6068L32.3264 48.5702L32.4066 47.667L33.6628 33.5959L33.7932 32.1606H32.353H21.3691ZM21.3691 21.3424V26.6874H34.2796L34.3866 25.4859L34.6302 22.7764L34.7581 21.3424H21.3691Z" fill="white"/>
</g>
</svg>
