<svg width="47" height="48" viewBox="0 0 47 48" fill="none" xmlns="http://www.w3.org/2000/svg">
<path d="M0.137207 0.0255127H46.6385V47.5059H0.137207V0.0255127Z" fill="#F0DB4F"/>
<path d="M42.8328 36.1819C42.4924 34.0155 41.1089 32.1966 37.0113 30.4996C35.5879 29.8316 34.0011 29.3532 33.5281 28.2519C33.3601 27.611 33.338 27.25 33.4441 26.8618C33.7491 25.6026 35.2211 25.2099 36.388 25.571C37.1395 25.8283 37.8511 26.4196 38.2799 27.3628C40.2867 26.0359 40.2823 26.0449 41.6835 25.1333C41.1707 24.3209 40.8967 23.9462 40.5607 23.5987C39.354 22.2221 37.7097 21.5135 35.0796 21.5677C34.6243 21.6264 34.1646 21.6895 33.7093 21.7482C32.3965 22.0867 31.1456 22.7908 30.4118 23.7341C28.2105 26.2842 28.8382 30.7478 31.5169 32.5848C34.1558 34.6068 38.0323 35.0671 38.5274 36.9582C39.0092 39.2736 36.861 40.0227 34.726 39.7565C33.1524 39.4225 32.2772 38.6056 31.3312 37.1207C29.5897 38.1498 29.5897 38.1498 27.7995 39.2014C28.2238 40.1492 28.6702 40.5779 29.3819 41.3994C32.7502 44.8882 41.1796 44.7167 42.6914 39.4361C42.7532 39.2555 43.1599 38.0459 42.8328 36.1819ZM25.4169 21.8475H21.0673C21.0673 25.6838 21.0497 29.4931 21.0497 33.3295C21.0497 35.7712 21.1735 38.0098 20.7845 38.6958C20.1479 40.0453 18.4992 39.8783 17.7477 39.6165C16.983 39.2329 16.594 38.6868 16.1432 37.915C16.0194 37.6939 15.9266 37.5224 15.8956 37.5088C14.7154 38.2445 13.5396 38.9846 12.3594 39.7204C12.9473 40.9525 13.8136 42.0222 14.9231 42.7172C16.5807 43.7327 18.8086 44.0441 21.1381 43.498C22.6542 43.0466 23.9626 42.1124 24.6477 40.6907C25.6379 38.8267 25.4257 36.57 25.4169 34.0742C25.439 30.0031 25.4169 25.9321 25.4169 21.8475Z" fill="#323330"/>
</svg>
