<svg width="46" height="29" viewBox="0 0 46 29" fill="none" xmlns="http://www.w3.org/2000/svg">
<g id="nodejs">
<path id="path892" d="M22.8507 28.1186C22.7 28.1186 22.5503 28.079 22.4181 28.0029L21.0412 27.1877C20.8355 27.0727 20.9359 27.032 21.0037 27.0086C21.2779 26.9126 21.3336 26.8909 21.6262 26.7247C21.657 26.7071 21.6973 26.7133 21.7288 26.7319L22.7866 27.3596C22.8248 27.3803 22.879 27.3803 22.9144 27.3596L27.039 24.9788C27.0772 24.9572 27.1019 24.9128 27.1019 24.8673V20.1078C27.1019 20.0604 27.0772 20.018 27.0381 19.9943L22.9152 17.6156C22.877 17.5929 22.8264 17.5929 22.7882 17.6156L18.6662 19.9943C18.6262 20.017 18.6008 20.0614 18.6008 20.1068V24.8663C18.6008 24.9117 18.6256 24.9551 18.6648 24.9768L19.7943 25.6293C20.4076 25.9359 20.7823 25.5745 20.7823 25.2111V20.5136C20.7823 20.4465 20.835 20.3949 20.9021 20.3949H21.4245C21.4896 20.3949 21.5432 20.4465 21.5432 20.5136V25.2132C21.5432 26.0309 21.0972 26.5006 20.3219 26.5006C20.0834 26.5006 19.8955 26.5006 19.371 26.2425L18.289 25.6189C18.0216 25.4641 17.8564 25.175 17.8564 24.8663V20.1068C17.8564 19.7971 18.0216 19.508 18.289 19.3552L22.4177 16.9734C22.6789 16.8258 23.0258 16.8258 23.2849 16.9734L27.4085 19.3562C27.6748 19.5101 27.841 19.7981 27.841 20.1078V24.8673C27.841 25.176 27.6748 25.4641 27.4085 25.6189L23.2849 28.0008C23.1528 28.0772 23.0031 28.1164 22.8503 28.1164" fill="#689F63"/>
<path id="path894" d="M24.1247 24.8389C22.32 24.8389 21.9417 24.0105 21.9417 23.3157C21.9417 23.2496 21.9949 23.1969 22.0611 23.1969H22.5938C22.6527 23.1969 22.7022 23.2398 22.7115 23.2979C22.7921 23.8408 23.0316 24.1146 24.1229 24.1146C24.9922 24.1146 25.3618 23.9182 25.3618 23.4572C25.3618 23.1919 25.2565 22.9947 23.906 22.8625C22.7766 22.751 22.0787 22.5022 22.0787 21.5988C22.0787 20.7667 22.7807 20.2711 23.9566 20.2711C25.2771 20.2711 25.9317 20.7295 26.0143 21.7145C26.0174 21.7485 26.005 21.7816 25.9823 21.8064C25.9595 21.8301 25.9275 21.8446 25.8945 21.8446H25.3587C25.3029 21.8446 25.2544 21.8053 25.243 21.7516C25.114 21.1807 24.8022 20.998 23.9546 20.998C23.0058 20.998 22.8953 21.3283 22.8953 21.5761C22.8953 21.8766 23.0254 21.9643 24.3056 22.1336C25.5734 22.3019 26.1753 22.5394 26.1753 23.4304C26.1753 24.3286 25.4258 24.8438 24.1187 24.8438L24.1247 24.8389ZM29.1425 19.7962H29.2809C29.3944 19.7962 29.4161 19.7167 29.4161 19.6703C29.4161 19.5484 29.3325 19.5484 29.286 19.5484H29.1436L29.1425 19.7962ZM28.9742 19.406H29.2809C29.3862 19.406 29.5927 19.406 29.5927 19.6414C29.5927 19.8055 29.4873 19.8396 29.4244 19.8602C29.5472 19.8685 29.5555 19.949 29.572 20.0626C29.5803 20.1338 29.5937 20.2567 29.6185 20.298H29.4295C29.4244 20.2567 29.3955 20.0296 29.3955 20.0172C29.3831 19.9666 29.3655 19.9418 29.3025 19.9418H29.1466V20.299H28.9742V19.406ZM28.6057 19.8499C28.6057 20.2195 28.904 20.5189 29.2705 20.5189C29.6402 20.5189 29.9385 20.2133 29.9385 19.8499C29.9385 19.4793 29.636 19.185 29.2695 19.185C28.9082 19.185 28.6046 19.4751 28.6046 19.8489L28.6057 19.8499ZM30.0665 19.852C30.0665 20.2897 29.7083 20.6469 29.2716 20.6469C28.838 20.6469 28.4766 20.2939 28.4766 19.852C28.4766 19.4018 28.8462 19.057 29.2716 19.057C29.7 19.057 30.0655 19.4029 30.0655 19.852" fill="#689F63"/>
<path id="path896" fill-rule="evenodd" clip-rule="evenodd" d="M10.0785 9.49594C10.0785 9.30598 9.9784 9.1315 9.81445 9.03703L5.44151 6.521C5.36769 6.47764 5.28499 6.45493 5.20116 6.45183H5.15594C5.0721 6.45493 4.98941 6.47764 4.91435 6.521L0.541607 9.03703C0.37869 9.13201 0.2771 9.30649 0.2771 9.49646L0.286701 16.2733C0.286701 16.3673 0.335225 16.455 0.417819 16.5015C0.498349 16.551 0.599527 16.551 0.680056 16.5015L3.27971 15.0127C3.44386 14.915 3.54401 14.7424 3.54401 14.5543V11.3884C3.54401 11.1994 3.64415 11.025 3.80779 10.931L4.91456 10.2936C4.99674 10.2461 5.08697 10.2226 5.17886 10.2226C5.2693 10.2226 5.3616 10.2459 5.44151 10.2935L6.54775 10.9307C6.71149 11.0247 6.81205 11.1991 6.81205 11.3881V14.5538C6.81205 14.7417 6.91354 14.9152 7.07687 15.0122L9.67487 16.4999C9.75643 16.5485 9.85792 16.5485 9.93917 16.4999C10.0193 16.4535 10.0701 16.3657 10.0701 16.2718L10.0785 9.49594ZM30.7135 13.0244C30.7135 13.0715 30.6884 13.1152 30.6474 13.1386L29.1454 14.0043C29.1046 14.0278 29.0542 14.0278 29.0136 14.0043L27.5114 13.1386C27.4701 13.1151 27.4453 13.0714 27.4453 13.0244V11.2903C27.4453 11.243 27.4701 11.1994 27.5104 11.1757L29.0115 10.3085C29.0528 10.2847 29.1034 10.2847 29.1447 10.3085L30.6469 11.1757C30.6882 11.1994 30.7129 11.243 30.7129 11.2903L30.7135 13.0244ZM31.1192 0.180767C31.0372 0.135134 30.9375 0.136373 30.8566 0.183555C30.776 0.231046 30.7263 0.31777 30.7263 0.411721V7.1225C30.7263 7.18857 30.6912 7.24949 30.634 7.28252C30.5772 7.31556 30.5065 7.31556 30.4492 7.28252L29.3538 6.65161C29.1906 6.55724 28.9897 6.55724 28.826 6.65161L24.4516 9.1762C24.2881 9.27015 24.1873 9.44463 24.1873 9.63253V14.6832C24.1873 14.8721 24.2881 15.0455 24.4516 15.1405L28.826 17.6669C28.9893 17.7608 29.1904 17.7608 29.3543 17.6669L33.7287 15.1395C33.8918 15.0445 33.993 14.8711 33.993 14.6821V2.09478C33.993 1.90317 33.8887 1.72693 33.7214 1.63329L31.1192 0.180767ZM45.686 11.2447C45.8485 11.1503 45.9486 10.976 45.9486 10.7881V9.56408C45.9486 9.37577 45.8484 9.20201 45.6856 9.10723L41.3391 6.58398C41.1749 6.489 40.9736 6.489 40.8095 6.58398L36.4361 9.10827C36.2719 9.20325 36.1718 9.3767 36.1718 9.56563V14.6142C36.1718 14.8042 36.274 14.9797 36.4382 15.0736L40.7836 17.5504C40.9437 17.6423 41.1398 17.6433 41.3019 17.5535L43.9305 16.0926C44.0131 16.0462 44.0657 15.9584 44.0657 15.8634C44.0657 15.7685 44.0151 15.6797 43.9325 15.6332L39.5323 13.1079C39.4498 13.0614 39.3992 12.9737 39.3992 12.8797V11.296C39.3992 11.2014 39.4487 11.1143 39.5313 11.0672L40.9003 10.2774C40.9819 10.2299 41.082 10.2299 41.1636 10.2774L42.5336 11.0672C42.6152 11.1137 42.6658 11.2014 42.6658 11.2954V12.5405C42.6658 12.6344 42.7164 12.7222 42.7979 12.7697C42.8795 12.8161 42.9807 12.8161 43.0622 12.7686L45.686 11.2447Z" fill="#333333"/>
<path id="path898" fill-rule="evenodd" clip-rule="evenodd" d="M41.0106 11.008C41.0416 10.9897 41.0804 10.9897 41.1118 11.008L41.9511 11.4922C41.9825 11.5103 42.0017 11.5438 42.0017 11.5799V12.5494C42.0017 12.5855 41.9825 12.619 41.9511 12.6371L41.1118 13.1213C41.0804 13.1396 41.0416 13.1396 41.0106 13.1213L40.1717 12.6371C40.1397 12.619 40.1201 12.5855 40.1201 12.5494V11.5799C40.1201 11.5438 40.1387 11.5103 40.1707 11.4922L41.0106 11.008Z" fill="#689F63"/>
<g id="g910">
<path id="path908" d="M16.8735 5.79578L11.2349 11.3722L16.8114 17.0108L22.45 11.4344L16.8735 5.79578Z" fill="url(#paint0_linear)"/>
</g>
</g>
<defs>
<linearGradient id="paint0_linear" x1="14.0559" y1="8.58605" x2="19.6316" y2="14.2238" gradientUnits="userSpaceOnUse">
<stop offset="0.16" stop-color="#6BBF47"/>
<stop offset="0.38" stop-color="#79B461"/>
<stop offset="0.47" stop-color="#75AC64"/>
<stop offset="0.7" stop-color="#659E5A"/>
<stop offset="0.9" stop-color="#3E863D"/>
</linearGradient>
</defs>
</svg>
