<svg width="48" height="48" viewBox="0 0 48 48" fill="none" xmlns="http://www.w3.org/2000/svg">
<g id="react">
<g id="g975">
<path id="path952" d="M0.137207 0.0916748H47.6069V47.5613H0.137207V0.0916748Z" fill="#222222"/>
<path id="circle954" d="M23.8353 27.7672C26.0276 27.7672 27.8049 25.9899 27.8049 23.7976C27.8049 21.6052 26.0276 19.828 23.8353 19.828C21.643 19.828 19.8657 21.6052 19.8657 23.7976C19.8657 25.9899 21.643 27.7672 23.8353 27.7672Z" fill="#00D8FF"/>
<g id="g1240">
<path id="path956" d="M23.8352 15.7273C29.1638 15.7273 34.1147 16.4921 37.8468 17.7764C42.3437 19.3243 45.1091 21.6712 45.1091 23.7963C45.1091 26.0107 42.1784 28.5045 37.3496 30.1036C33.6988 31.3131 28.8936 31.9454 23.8352 31.9454C18.6483 31.9454 13.7381 31.3524 10.0453 30.0905C5.37392 28.494 2.56006 25.9687 2.56006 23.7963C2.56006 21.6882 5.20076 19.3597 9.63472 17.8144C13.3813 16.5091 18.4541 15.7273 23.8352 15.7273Z" stroke="#00D8FF" stroke-width="0.95774" stroke-miterlimit="10"/>
<path id="path958" d="M16.8101 19.7861C19.4718 15.1698 22.6084 11.2632 25.5862 8.67236C29.174 5.55022 32.5887 4.3276 34.4292 5.38886C36.3471 6.49473 37.0437 10.2793 36.0165 15.263C35.2399 19.0305 33.3876 23.5078 30.8597 27.8906C28.2689 32.3836 25.3015 36.3413 22.3644 38.9099C18.648 42.1593 15.0536 43.3347 13.1724 42.2498C11.3463 41.1964 10.6485 37.7463 11.5234 33.1326C12.2633 29.2313 14.1209 24.447 16.8101 19.7861V19.7861Z" stroke="#00D8FF" stroke-width="0.95774" stroke-miterlimit="10"/>
</g>
<path id="path960" d="M16.8167 27.8997C14.1472 23.2873 12.329 18.6199 11.5708 14.746C10.6577 10.0786 11.3032 6.5091 13.1423 5.44521C15.0589 4.33541 18.6848 5.62231 22.4891 9.00025C25.3659 11.5544 28.3188 15.3954 30.8533 19.7743C33.452 24.2633 35.4 28.8101 36.157 32.6367C37.1159 37.4799 36.3393 41.1806 34.4595 42.2681C32.6347 43.3241 29.2974 42.2064 25.7371 39.1433C22.7304 36.5551 19.5125 32.5567 16.8167 27.8997V27.8997Z" stroke="#00D8FF" stroke-width="0.95774" stroke-miterlimit="10"/>
</g>
</g>
</svg>
