<svg width="47" height="45" viewBox="0 0 47 45" fill="none" xmlns="http://www.w3.org/2000/svg">
<g id="redux">
<path id="path977" d="M32.4768 31.1239C34.1982 30.9457 35.5042 29.4617 35.4448 27.6807C35.3855 25.8999 33.9014 24.4751 32.1205 24.4751H32.0019C30.1615 24.5345 28.7369 26.0779 28.7963 27.9181C28.8557 28.8086 29.2118 29.5803 29.746 30.1146C27.7278 34.0921 24.641 37.0009 20.0108 39.4348C16.8646 41.097 13.5998 41.6906 10.3349 41.2752C7.66361 40.9189 5.58594 39.7318 4.27979 37.7726C2.38035 34.8638 2.20232 31.7174 3.80512 28.5712C4.93306 26.3153 6.7137 24.6531 7.84164 23.822C7.60421 23.0503 7.24797 21.7444 7.06994 20.7946C-1.53755 27.0278 -0.647038 35.4575 1.96488 39.4348C3.92375 42.4031 7.90104 44.2433 12.2938 44.2433C13.481 44.2433 14.6681 44.1245 15.8555 43.8279C23.4538 42.3437 29.212 37.832 32.4768 31.1239ZM42.9245 23.7628C38.4129 18.4794 31.7645 15.5706 24.1661 15.5706H23.2164C22.6821 14.5021 21.5542 13.7896 20.3076 13.7896H20.1888C18.3488 13.849 16.9242 15.3924 16.9834 17.2328C17.0428 19.0136 18.5268 20.4384 20.3076 20.4384H20.4263C21.7322 20.379 22.8602 19.5479 23.335 18.42H24.4036C28.9151 18.42 33.1891 19.7259 37.0477 22.2786C40.0157 24.2377 42.1528 26.7904 43.34 29.8772C44.3491 32.3705 44.2897 34.8044 43.2211 36.8822C41.5591 40.0284 38.7692 41.75 35.0887 41.75C32.7142 41.75 30.4585 41.0376 29.2712 40.5033C28.6183 41.097 27.4309 42.0467 26.5998 42.6406C29.1525 43.8277 31.7645 44.4808 34.2576 44.4808C39.9563 44.4808 44.1711 41.3344 45.7739 38.1882C47.4953 34.745 47.3765 28.8086 42.9245 23.7628ZM12.7687 32.1329C12.8281 33.9139 14.3121 35.3385 16.0929 35.3385H16.2117C18.0519 35.2793 19.4765 33.7357 19.4171 31.8954C19.3579 30.1144 17.8737 28.6898 16.0929 28.6898H15.9743C15.8555 28.6898 15.6772 28.6898 15.5588 28.7491C13.1249 24.7124 12.1158 20.3196 12.472 15.5704C12.7093 12.0086 13.8966 8.9216 15.9743 6.36891C17.6957 4.17242 21.0199 3.10389 23.2758 3.04466C29.568 2.92587 32.2392 10.7618 32.4174 13.9082C33.1891 14.0862 34.495 14.5019 35.3855 14.7987C34.6731 5.18191 28.7369 0.195312 23.0384 0.195312C17.6957 0.195312 12.7687 4.05398 10.8096 9.75288C8.07907 17.3514 9.8599 24.6531 13.1841 30.4114C12.8875 30.8269 12.7093 31.48 12.7687 32.1331V32.1329Z" fill="#764ABC"/>
</g>
</svg>
