<svg width="71" height="357" viewBox="0 0 71 357" fill="none" xmlns="http://www.w3.org/2000/svg">
<g id="layer1">
<g id="html">
<path id="path830" d="M17.9259 56.014L14.0405 12.4342H56.7349L52.8452 56.0071L35.3615 60.8542L17.9259 56.014Z" fill="#E44D26"/>
<path id="path832" d="M35.3875 57.1493L49.515 53.2324L52.8391 15.9976H35.3875V57.1493Z" fill="#F16529"/>
<path id="path834" d="M35.3876 32.1606H28.3151L27.8266 26.6874H35.3876V21.3424H21.9851L22.1132 22.7764L23.4268 37.5053H35.3876V32.1606ZM35.3876 46.0417L35.3642 46.0481L29.4116 44.4406L29.031 40.178H23.6657L24.4146 48.5702L35.3632 51.6096L35.3876 51.6027V46.0417Z" fill="#EBEBEB"/>
<path id="path836" d="M18.0127 0.591064H20.7288V3.2746H23.2134V0.591064H25.9297V8.71754H23.2134V5.99636H20.7288V8.71754H18.0129L18.0127 0.591064ZM29.5017 3.28605H27.1107V0.591064H34.6106V3.28605H32.2184V8.71754H29.5018V3.28605H29.5017ZM35.8007 0.591064H38.6331L40.3753 3.44654L42.1159 0.591064H44.9492V8.71754H42.2438V4.68952L40.375 7.57896H40.3283L38.4583 4.68952V8.71754H35.8006V0.591064H35.8007ZM46.3008 0.591064H49.0177V6.03149H52.8377V8.71754H46.3008V0.591064Z" fill="black"/>
<path id="path838" d="M35.3691 32.1606V37.5053H41.9509L41.3303 44.4373L35.3691 46.0461V51.6068L46.3264 48.5702L46.4066 47.667L47.6628 33.5959L47.7932 32.1606H46.353H35.3691ZM35.3691 21.3424V26.6874H48.2796L48.3866 25.4859L48.6302 22.7764L48.7581 21.3424H35.3691Z" fill="white"/>
</g>
<g id="nodejs">
<path id="path892" d="M35.8507 284.119C35.7 284.119 35.5503 284.079 35.4181 284.003L34.0412 283.188C33.8355 283.073 33.9359 283.032 34.0037 283.009C34.2779 282.913 34.3336 282.891 34.6262 282.725C34.657 282.707 34.6973 282.713 34.7288 282.732L35.7866 283.36C35.8248 283.38 35.879 283.38 35.9144 283.36L40.039 280.979C40.0772 280.957 40.1019 280.913 40.1019 280.867V276.108C40.1019 276.06 40.0772 276.018 40.0381 275.994L35.9152 273.616C35.877 273.593 35.8264 273.593 35.7882 273.616L31.6662 275.994C31.6262 276.017 31.6008 276.061 31.6008 276.107V280.866C31.6008 280.912 31.6256 280.955 31.6648 280.977L32.7943 281.629C33.4076 281.936 33.7823 281.575 33.7823 281.211V276.514C33.7823 276.446 33.835 276.395 33.9021 276.395H34.4245C34.4896 276.395 34.5432 276.446 34.5432 276.514V281.213C34.5432 282.031 34.0972 282.501 33.3219 282.501C33.0834 282.501 32.8955 282.501 32.371 282.243L31.289 281.619C31.0216 281.464 30.8564 281.175 30.8564 280.866V276.107C30.8564 275.797 31.0216 275.508 31.289 275.355L35.4177 272.973C35.6789 272.826 36.0258 272.826 36.2849 272.973L40.4085 275.356C40.6748 275.51 40.841 275.798 40.841 276.108V280.867C40.841 281.176 40.6748 281.464 40.4085 281.619L36.2849 284.001C36.1528 284.077 36.0031 284.116 35.8503 284.116" fill="#689F63"/>
<path id="path894" d="M37.1247 280.839C35.32 280.839 34.9417 280.01 34.9417 279.316C34.9417 279.25 34.9949 279.197 35.0611 279.197H35.5938C35.6527 279.197 35.7022 279.24 35.7115 279.298C35.7921 279.841 36.0316 280.115 37.1229 280.115C37.9922 280.115 38.3618 279.918 38.3618 279.457C38.3618 279.192 38.2565 278.995 36.906 278.863C35.7766 278.751 35.0787 278.502 35.0787 277.599C35.0787 276.767 35.7807 276.271 36.9566 276.271C38.2771 276.271 38.9317 276.73 39.0143 277.714C39.0174 277.749 39.005 277.782 38.9823 277.806C38.9595 277.83 38.9275 277.845 38.8945 277.845H38.3587C38.3029 277.845 38.2544 277.805 38.243 277.752C38.114 277.181 37.8022 276.998 36.9546 276.998C36.0058 276.998 35.8953 277.328 35.8953 277.576C35.8953 277.877 36.0254 277.964 37.3056 278.134C38.5734 278.302 39.1753 278.539 39.1753 279.43C39.1753 280.329 38.4258 280.844 37.1187 280.844L37.1247 280.839ZM42.1425 275.796H42.2809C42.3944 275.796 42.4161 275.717 42.4161 275.67C42.4161 275.548 42.3325 275.548 42.286 275.548H42.1436L42.1425 275.796ZM41.9742 275.406H42.2809C42.3862 275.406 42.5927 275.406 42.5927 275.641C42.5927 275.806 42.4873 275.84 42.4244 275.86C42.5472 275.868 42.5555 275.949 42.572 276.063C42.5803 276.134 42.5937 276.257 42.6185 276.298H42.4295C42.4244 276.257 42.3955 276.03 42.3955 276.017C42.3831 275.967 42.3655 275.942 42.3025 275.942H42.1466V276.299H41.9742V275.406ZM41.6057 275.85C41.6057 276.22 41.904 276.519 42.2705 276.519C42.6401 276.519 42.9385 276.213 42.9385 275.85C42.9385 275.479 42.636 275.185 42.2695 275.185C41.9082 275.185 41.6046 275.475 41.6046 275.849L41.6057 275.85ZM43.0665 275.852C43.0665 276.29 42.7083 276.647 42.2716 276.647C41.838 276.647 41.4766 276.294 41.4766 275.852C41.4766 275.402 41.8462 275.057 42.2716 275.057C42.7 275.057 43.0655 275.403 43.0655 275.852" fill="#689F63"/>
<path id="path896" fill-rule="evenodd" clip-rule="evenodd" d="M23.0785 265.496C23.0785 265.306 22.9784 265.131 22.8145 265.037L18.4415 262.521C18.3677 262.478 18.285 262.455 18.2012 262.452H18.1559C18.0721 262.455 17.9894 262.478 17.9143 262.521L13.5416 265.037C13.3787 265.132 13.2771 265.306 13.2771 265.496L13.2867 272.273C13.2867 272.367 13.3352 272.455 13.4178 272.501C13.4983 272.551 13.5995 272.551 13.6801 272.501L16.2797 271.013C16.4439 270.915 16.544 270.742 16.544 270.554V267.388C16.544 267.199 16.6442 267.025 16.8078 266.931L17.9146 266.294C17.9967 266.246 18.087 266.223 18.1789 266.223C18.2693 266.223 18.3616 266.246 18.4415 266.293L19.5478 266.931C19.7115 267.025 19.8121 267.199 19.8121 267.388V270.554C19.8121 270.742 19.9135 270.915 20.0769 271.012L22.6749 272.5C22.7564 272.548 22.8579 272.548 22.9392 272.5C23.0193 272.453 23.0701 272.366 23.0701 272.272L23.0785 265.496ZM43.7135 269.024C43.7135 269.072 43.6884 269.115 43.6474 269.139L42.1454 270.004C42.1046 270.028 42.0542 270.028 42.0136 270.004L40.5114 269.139C40.4701 269.115 40.4453 269.071 40.4453 269.024V267.29C40.4453 267.243 40.4701 267.199 40.5104 267.176L42.0115 266.308C42.0528 266.285 42.1034 266.285 42.1447 266.308L43.6469 267.176C43.6882 267.199 43.7129 267.243 43.7129 267.29L43.7135 269.024ZM44.1192 256.181C44.0372 256.135 43.9375 256.136 43.8566 256.184C43.776 256.231 43.7263 256.318 43.7263 256.412V263.122C43.7263 263.189 43.6912 263.249 43.634 263.283C43.5772 263.316 43.5065 263.316 43.4492 263.283L42.3538 262.652C42.1906 262.557 41.9897 262.557 41.826 262.652L37.4516 265.176C37.2881 265.27 37.1873 265.445 37.1873 265.633V270.683C37.1873 270.872 37.2881 271.046 37.4516 271.141L41.826 273.667C41.9893 273.761 42.1904 273.761 42.3543 273.667L46.7287 271.139C46.8918 271.045 46.993 270.871 46.993 270.682V258.095C46.993 257.903 46.8887 257.727 46.7214 257.633L44.1192 256.181ZM58.686 267.245C58.8485 267.15 58.9486 266.976 58.9486 266.788V265.564C58.9486 265.376 58.8484 265.202 58.6856 265.107L54.3391 262.584C54.1749 262.489 53.9736 262.489 53.8095 262.584L49.4361 265.108C49.2719 265.203 49.1718 265.377 49.1718 265.566V270.614C49.1718 270.804 49.274 270.98 49.4382 271.074L53.7836 273.55C53.9437 273.642 54.1398 273.643 54.3019 273.554L56.9305 272.093C57.0131 272.046 57.0657 271.958 57.0657 271.863C57.0657 271.768 57.0151 271.68 56.9325 271.633L52.5323 269.108C52.4498 269.061 52.3992 268.974 52.3992 268.88V267.296C52.3992 267.201 52.4487 267.114 52.5313 267.067L53.9003 266.277C53.9819 266.23 54.082 266.23 54.1636 266.277L55.5336 267.067C55.6152 267.114 55.6658 267.201 55.6658 267.295V268.54C55.6658 268.634 55.7164 268.722 55.7979 268.77C55.8795 268.816 55.9807 268.816 56.0622 268.769L58.686 267.245Z" fill="#333333"/>
<path id="path898" fill-rule="evenodd" clip-rule="evenodd" d="M54.0106 267.008C54.0416 266.99 54.0804 266.99 54.1118 267.008L54.9511 267.492C54.9825 267.51 55.0017 267.544 55.0017 267.58V268.549C55.0017 268.586 54.9825 268.619 54.9511 268.637L54.1118 269.121C54.0804 269.14 54.0416 269.14 54.0106 269.121L53.1717 268.637C53.1397 268.619 53.1201 268.586 53.1201 268.549V267.58C53.1201 267.544 53.1387 267.51 53.1707 267.492L54.0106 267.008Z" fill="#689F63"/>
<g id="g910">
<path id="path908" d="M29.8735 261.796L24.2349 267.372L29.8114 273.011L35.45 267.434L29.8735 261.796Z" fill="url(#paint0_linear)"/>
</g>
</g>
<g id="javascript">
<path id="path988" d="M12.1372 146.026H58.6385V193.506H12.1372V146.026Z" fill="#F0DB4F"/>
<path id="path990" d="M54.8328 182.182C54.4924 180.015 53.1089 178.197 49.0113 176.5C47.5879 175.832 46.0011 175.353 45.5281 174.252C45.3601 173.611 45.338 173.25 45.4441 172.862C45.7491 171.603 47.2211 171.21 48.388 171.571C49.1395 171.828 49.8511 172.42 50.2799 173.363C52.2867 172.036 52.2823 172.045 53.6835 171.133C53.1707 170.321 52.8967 169.946 52.5607 169.599C51.354 168.222 49.7097 167.514 47.0796 167.568C46.6243 167.626 46.1646 167.69 45.7093 167.748C44.3965 168.087 43.1456 168.791 42.4118 169.734C40.2105 172.284 40.8382 176.748 43.5169 178.585C46.1558 180.607 50.0323 181.067 50.5274 182.958C51.0092 185.274 48.861 186.023 46.726 185.757C45.1524 185.423 44.2772 184.606 43.3312 183.121C41.5897 184.15 41.5897 184.15 39.7995 185.201C40.2238 186.149 40.6702 186.578 41.3819 187.399C44.7502 190.888 53.1796 190.717 54.6914 185.436C54.7532 185.255 55.1599 184.046 54.8328 182.182V182.182ZM37.4169 167.847H33.0673C33.0673 171.684 33.0497 175.493 33.0497 179.329C33.0497 181.771 33.1735 184.01 32.7845 184.696C32.1479 186.045 30.4992 185.878 29.7477 185.616C28.983 185.233 28.594 184.687 28.1432 183.915C28.0194 183.694 27.9266 183.522 27.8956 183.509C26.7154 184.244 25.5396 184.985 24.3594 185.72C24.9473 186.952 25.8136 188.022 26.9231 188.717C28.5807 189.733 30.8086 190.044 33.1381 189.498C34.6542 189.047 35.9626 188.112 36.6477 186.691C37.6379 184.827 37.4257 182.57 37.4169 180.074C37.439 176.003 37.4169 171.932 37.4169 167.847Z" fill="#323330"/>
</g>
<g id="gatsby">
<path id="path1089" d="M40.644 297.235H41.9345V301.844H40.644V301.245C40.1831 301.936 39.5839 301.982 39.2152 301.982C37.7864 301.982 36.8646 300.876 36.8646 299.539C36.8646 298.157 37.7864 297.097 39.123 297.097C39.4917 297.097 40.1831 297.143 40.5979 297.834V297.235H40.644ZM38.2473 299.539C38.2473 300.277 38.7543 300.83 39.5378 300.83C40.2752 300.83 40.8283 300.277 40.8283 299.539C40.8283 298.802 40.3213 298.249 39.5378 298.249C38.8004 298.249 38.2473 298.802 38.2473 299.539ZM44.4694 298.341V301.844H43.1789V298.341H42.6719V297.235H43.1789V295.668H44.4694V297.235H45.3451V298.341H44.4694ZM48.387 298.341C48.0643 298.065 47.7878 298.019 47.6495 298.019C47.3269 298.019 47.1425 298.157 47.1425 298.387C47.1425 298.526 47.1886 298.664 47.5574 298.802L47.88 298.894C48.2487 299.033 48.8018 299.171 49.0322 299.539C49.1705 299.724 49.2627 300 49.2627 300.323C49.2627 300.738 49.1244 301.153 48.7557 301.475C48.387 301.798 47.9261 301.982 47.373 301.982C46.4051 301.982 45.8981 301.521 45.5755 301.199L46.2669 300.415C46.5434 300.692 46.9121 300.968 47.2808 300.968C47.6495 300.968 47.9261 300.784 47.9261 300.461C47.9261 300.185 47.6956 300.046 47.5113 300L47.2347 299.908C46.9121 299.77 46.5434 299.632 46.2669 299.355C46.0364 299.125 45.8981 298.848 45.8981 298.479C45.8981 298.019 46.1286 297.65 46.359 297.419C46.7277 297.143 47.1886 297.097 47.5574 297.097C47.88 297.097 48.433 297.143 49.0322 297.604L48.387 298.341ZM51.1984 297.834C51.6593 297.189 52.3046 297.097 52.6733 297.097C54.0099 297.097 54.9316 298.157 54.9316 299.539C54.9316 300.922 54.0099 301.982 52.6272 301.982C52.3506 301.982 51.6593 301.936 51.1523 301.245V301.844H49.9079V294.101H51.1984V297.834ZM51.0601 299.539C51.0601 300.277 51.5671 300.83 52.3506 300.83C53.0881 300.83 53.6411 300.277 53.6411 299.539C53.6411 298.802 53.1342 298.249 52.3506 298.249C51.5671 298.249 51.0601 298.802 51.0601 299.539ZM57.0517 301.153L54.8395 297.235H56.3604L57.7892 299.862L59.0797 297.235H60.5545L56.8674 304.287H55.3925L57.0517 301.153ZM36.542 298.019H33.3158V299.309H35.0211C34.7445 300.185 34.0993 300.784 32.901 300.784C31.5644 300.784 30.5965 299.678 30.5965 298.341C30.5965 297.005 31.5183 295.852 32.8549 295.852C33.5923 295.852 34.3297 296.221 34.7906 296.82L35.8507 296.129C35.1593 295.161 34.0532 294.608 32.8549 294.608C30.8269 294.608 29.1677 296.267 29.1677 298.341C29.1677 300.415 30.7348 302.074 32.8549 302.074C34.975 302.074 36.542 300.415 36.542 298.341C36.5881 298.203 36.542 298.111 36.542 298.019V298.019Z" fill="black"/>
<g id="gatsby_2">
<path id="path1091" d="M23.1763 298.157H19.95V299.078H22.1623C21.8397 300.461 20.8257 301.613 19.4891 302.074L14.1889 296.774C14.7419 295.161 16.309 294.009 18.1064 294.009C19.4891 294.009 20.7335 294.7 21.5171 295.76L22.2084 295.161C21.2866 293.916 19.8117 293.087 18.1064 293.087C15.7098 293.087 13.6819 294.792 13.1749 297.05L19.2587 303.134C21.471 302.581 23.1763 300.553 23.1763 298.157ZM13.0366 298.203C13.0366 299.493 13.5436 300.738 14.5115 301.705C15.4794 302.673 16.7699 303.18 18.0143 303.18L13.0366 298.203Z" fill="white"/>
<path id="path1093" d="M18.1066 291.704C14.5577 291.704 11.6541 294.608 11.6541 298.157C11.6541 301.706 14.5577 304.609 18.1066 304.609C21.6554 304.609 24.5591 301.706 24.5591 298.157C24.5591 294.608 21.6554 291.704 18.1066 291.704ZM14.5116 301.752C13.5437 300.784 13.0367 299.493 13.0367 298.249L18.0605 303.227C16.77 303.18 15.4795 302.72 14.5116 301.752ZM19.2127 303.088L13.175 297.051C13.682 294.792 15.7099 293.087 18.1066 293.087C19.8119 293.087 21.2867 293.917 22.2085 295.161L21.5172 295.76C20.7336 294.7 19.4892 294.009 18.1066 294.009C16.3091 294.009 14.7881 295.161 14.189 296.774L19.4892 302.074C20.8258 301.613 21.8398 300.461 22.1624 299.079H19.9501V298.157H23.1764C23.1764 300.553 21.4711 302.581 19.2127 303.088Z" fill="#663399"/>
</g>
</g>
<g id="css">
<path id="path1173" d="M53.0907 129.195L35.3874 133.962L17.6839 129.195L13.5986 84.9368H57.1764L53.0907 129.195Z" fill="#2062AF"/>
<path id="path1175" d="M35.3875 88.5219V130.16L35.4275 130.171L49.754 126.313L53.0608 88.5219H35.3875Z" fill="#3C9CD7"/>
<path id="path1177" d="M25.34 78.4345V75.8002H29.1834V72.9177H22.4575V81.0648H29.1834V78.4345H25.34ZM36.0971 75.8002H38.7841V72.9177H32.0577V75.8002C32.9576 76.7001 33.4269 77.1308 34.7284 78.4324C33.9676 78.4324 32.0577 78.4351 32.0577 78.435V81.0648H38.7841V78.4345L36.0971 75.8002ZM45.6307 75.8002H48.3176V72.9177H41.5909V75.8002C42.4908 76.7001 42.9604 77.1308 44.2619 78.4324C43.5013 78.4324 41.5909 78.4351 41.5909 78.435V81.0648H48.3177V78.4345L45.6307 75.8002Z" fill="black"/>
<path id="path1202" opacity="0.273" d="M35.3713 104.865H22.7004L23.1206 110.09L35.3713 110.129V104.865ZM35.3713 118.841L35.3112 118.857L29.3661 117.356L29.0058 113.032H23.4812L24.2017 121.38L35.3713 124.682V118.841Z" fill="black"/>
<path id="path1211" opacity="0.273" d="M35.3715 93.9358H21.5596L22.2201 99.2804H35.3715V93.9358Z" fill="black"/>
</g>
<g id="react">
<g id="g975">
<path id="path952" d="M12.1372 201.092H59.6069V248.561H12.1372V201.092Z" fill="#222222"/>
<path id="circle954" d="M35.8353 228.767C38.0276 228.767 39.8049 226.99 39.8049 224.798C39.8049 222.605 38.0276 220.828 35.8353 220.828C33.643 220.828 31.8657 222.605 31.8657 224.798C31.8657 226.99 33.643 228.767 35.8353 228.767Z" fill="#00D8FF"/>
<g id="g1240">
<path id="path956" d="M35.8352 216.727C41.1638 216.727 46.1147 217.492 49.8468 218.776C54.3437 220.324 57.1091 222.671 57.1091 224.796C57.1091 227.011 54.1784 229.504 49.3496 231.104C45.6988 232.313 40.8936 232.945 35.8352 232.945C30.6483 232.945 25.7381 232.352 22.0453 231.09C17.3739 229.494 14.5601 226.969 14.5601 224.796C14.5601 222.688 17.2008 220.36 21.6347 218.814C25.3813 217.509 30.4541 216.727 35.8352 216.727Z" stroke="#00D8FF" stroke-width="0.95774" stroke-miterlimit="10"/>
<path id="path958" d="M28.8101 220.786C31.4718 216.17 34.6084 212.263 37.5862 209.672C41.174 206.55 44.5887 205.328 46.4292 206.389C48.3471 207.495 49.0437 211.279 48.0165 216.263C47.2399 220.031 45.3876 224.508 42.8597 228.891C40.2689 233.384 37.3015 237.341 34.3644 239.91C30.648 243.159 27.0536 244.335 25.1724 243.25C23.3463 242.196 22.6485 238.746 23.5234 234.133C24.2633 230.231 26.1209 225.447 28.8101 220.786V220.786Z" stroke="#00D8FF" stroke-width="0.95774" stroke-miterlimit="10"/>
</g>
<path id="path960" d="M28.8167 228.9C26.1472 224.287 24.329 219.62 23.5708 215.746C22.6577 211.079 23.3032 207.509 25.1423 206.445C27.0589 205.335 30.6848 206.622 34.4891 210C37.3659 212.554 40.3188 216.395 42.8533 220.774C45.452 225.263 47.4 229.81 48.157 233.637C49.1159 238.48 48.3393 242.181 46.4595 243.268C44.6347 244.324 41.2974 243.206 37.7371 240.143C34.7304 237.555 31.5125 233.557 28.8167 228.9V228.9Z" stroke="#00D8FF" stroke-width="0.95774" stroke-miterlimit="10"/>
</g>
</g>
<g id="redux">
<path id="path977" d="M43.4768 343.124C45.1982 342.946 46.5042 341.462 46.4448 339.681C46.3855 337.9 44.9014 336.475 43.1205 336.475H43.0019C41.1615 336.535 39.7369 338.078 39.7963 339.918C39.8557 340.809 40.2118 341.58 40.746 342.115C38.7278 346.092 35.641 349.001 31.0108 351.435C27.8646 353.097 24.5998 353.691 21.3349 353.275C18.6636 352.919 16.5859 351.732 15.2798 349.773C13.3803 346.864 13.2023 343.717 14.8051 340.571C15.9331 338.315 17.7137 336.653 18.8416 335.822C18.6042 335.05 18.248 333.744 18.0699 332.795C9.46245 339.028 10.353 347.457 12.9649 351.435C14.9237 354.403 18.901 356.243 23.2938 356.243C24.481 356.243 25.6681 356.125 26.8555 355.828C34.4538 354.344 40.212 349.832 43.4768 343.124V343.124ZM53.9245 335.763C49.4129 330.479 42.7645 327.571 35.1661 327.571H34.2164C33.6821 326.502 32.5542 325.79 31.3076 325.79H31.1888C29.3488 325.849 27.9242 327.392 27.9834 329.233C28.0428 331.014 29.5268 332.438 31.3076 332.438H31.4263C32.7322 332.379 33.8602 331.548 34.335 330.42H35.4036C39.9151 330.42 44.1891 331.726 48.0477 334.279C51.0157 336.238 53.1528 338.79 54.34 341.877C55.3491 344.37 55.2897 346.804 54.2211 348.882C52.5591 352.028 49.7692 353.75 46.0887 353.75C43.7142 353.75 41.4585 353.038 40.2712 352.503C39.6183 353.097 38.4309 354.047 37.5998 354.641C40.1525 355.828 42.7645 356.481 45.2576 356.481C50.9563 356.481 55.1711 353.334 56.7739 350.188C58.4953 346.745 58.3765 340.809 53.9245 335.763V335.763ZM23.7687 344.133C23.8281 345.914 25.3121 347.338 27.0929 347.338H27.2117C29.0519 347.279 30.4765 345.736 30.4171 343.895C30.3579 342.114 28.8737 340.69 27.0929 340.69H26.9743C26.8555 340.69 26.6772 340.69 26.5588 340.749C24.1249 336.712 23.1158 332.32 23.472 327.57C23.7093 324.009 24.8966 320.922 26.9743 318.369C28.6957 316.172 32.0199 315.104 34.2758 315.045C40.568 314.926 43.2392 322.762 43.4174 325.908C44.1891 326.086 45.495 326.502 46.3855 326.799C45.6731 317.182 39.7369 312.195 34.0384 312.195C28.6957 312.195 23.7687 316.054 21.8096 321.753C19.0791 329.351 20.8599 336.653 24.1841 342.411C23.8875 342.827 23.7093 343.48 23.7687 344.133V344.133Z" fill="#764ABC"/>
</g>
</g>
<defs>
<linearGradient id="paint0_linear" x1="27.0559" y1="264.586" x2="32.6316" y2="270.224" gradientUnits="userSpaceOnUse">
<stop offset="0.16" stop-color="#6BBF47"/>
<stop offset="0.38" stop-color="#79B461"/>
<stop offset="0.47" stop-color="#75AC64"/>
<stop offset="0.7" stop-color="#659E5A"/>
<stop offset="0.9" stop-color="#3E863D"/>
</linearGradient>
</defs>
</svg>
