<?xml version="1.0" encoding="UTF-8" standalone="no"?>
<!-- Generator: Adobe Illustrator 17.1.0, SVG Export Plug-In . SVG Version: 6.00 Build 0)  -->

<svg
   xmlns:dc="http://purl.org/dc/elements/1.1/"
   xmlns:cc="http://creativecommons.org/ns#"
   xmlns:rdf="http://www.w3.org/1999/02/22-rdf-syntax-ns#"
   xmlns:svg="http://www.w3.org/2000/svg"
   xmlns="http://www.w3.org/2000/svg"
   xmlns:xlink="http://www.w3.org/1999/xlink"
   xmlns:sodipodi="http://sodipodi.sourceforge.net/DTD/sodipodi-0.dtd"
   xmlns:inkscape="http://www.inkscape.org/namespaces/inkscape"
   version="1.1"
   id="Object"
   x="0px"
   y="0px"
   viewBox="0 0 2267.0879 1575.9139"
   enable-background="new 0 0 7600 2000"
   xml:space="preserve"
   sodipodi:docname="education.svg"
   inkscape:version="0.92.2 (5c3e80d, 2017-08-06)"
   width="2267.0879"
   height="1575.9139"><metadata
     id="metadata1370"><rdf:RDF><cc:Work
         rdf:about=""><dc:format>image/svg+xml</dc:format><dc:type
           rdf:resource="http://purl.org/dc/dcmitype/StillImage" /><dc:title></dc:title></cc:Work></rdf:RDF></metadata><defs
     id="defs1368" /><sodipodi:namedview
     pagecolor="#ffffff"
     bordercolor="#666666"
     borderopacity="1"
     objecttolerance="10"
     gridtolerance="10"
     guidetolerance="10"
     inkscape:pageopacity="0"
     inkscape:pageshadow="2"
     inkscape:window-width="1304"
     inkscape:window-height="745"
     id="namedview1366"
     showgrid="false"
     inkscape:zoom="0.11842105"
     inkscape:cx="3988.602"
     inkscape:cy="1000"
     inkscape:window-x="-8"
     inkscape:window-y="-8"
     inkscape:window-maximized="1"
     inkscape:current-layer="g1363" /><g
     id="g1363"
     transform="translate(0,-424.086)"><g
       id="g459"><g
         id="g237" /><g
         id="g453" /></g><g
       id="OBJECT_37_"
       transform="translate(-5146.6119,178.89994)"><g
         id="g1360"><g
           id="g683"><g
             id="g463"><path
               d="m 6313.3,873 c -21.3,0 -38.6,-17.3 -38.6,-38.6 0,-21.3 17.3,-38.6 38.6,-38.6 21.3,0 38.6,17.3 38.6,38.6 0,21.3 -17.4,38.6 -38.6,38.6 z m 0,-67.8 c -16.1,0 -29.2,13.1 -29.2,29.2 0,16.1 13.1,29.2 29.2,29.2 16.1,0 29.2,-13.1 29.2,-29.2 0,-16.1 -13.1,-29.2 -29.2,-29.2 z"
               id="path461"
               inkscape:connector-curvature="0"
               style="fill:#1b77e3" /></g><g
             id="g467"><path
               d="m 5657.3,922.2 c -21.3,0 -38.6,-17.3 -38.6,-38.6 0,-21.3 17.3,-38.6 38.6,-38.6 21.3,0 38.6,17.3 38.6,38.6 0,21.2 -17.4,38.6 -38.6,38.6 z m 0,-67.9 c -16.1,0 -29.2,13.1 -29.2,29.2 0,16.1 13.1,29.2 29.2,29.2 16.1,0 29.2,-13.1 29.2,-29.2 0,-16.1 -13.1,-29.2 -29.2,-29.2 z"
               id="path465"
               inkscape:connector-curvature="0"
               style="fill:#1b77e3" /></g><g
             id="g471"><path
               d="m 6468.2,422.9 c -21.3,0 -38.6,-17.3 -38.6,-38.6 0,-21.3 17.3,-38.6 38.6,-38.6 21.3,0 38.6,17.3 38.6,38.6 0,21.3 -17.3,38.6 -38.6,38.6 z m 0,-67.8 c -16.1,0 -29.2,13.1 -29.2,29.2 0,16.1 13.1,29.2 29.2,29.2 16.1,0 29.2,-13.1 29.2,-29.2 0.1,-16.1 -13,-29.2 -29.2,-29.2 z"
               id="path469"
               inkscape:connector-curvature="0"
               style="fill:#1b77e3" /></g><g
             id="g613"><g
               id="g491"><g
                 id="g475"><path
                   d="m 5517,605.9 c -0.9,0 -1.9,0 -2.8,-0.1 -16.6,-1.2 -31.2,-12.6 -41.3,-32.2 -9.7,-18.8 -14,-43.2 -12.2,-68.5 1.8,-25.4 9.6,-48.8 21.8,-66.1 12.8,-18 28.9,-27.2 45.5,-26 16.6,1.2 31.2,12.6 41.3,32.2 9.7,18.8 14,43.2 12.2,68.5 -1.8,25.4 -9.6,48.8 -21.8,66.1 -12.1,16.9 -27.2,26.1 -42.7,26.1 z m 8.1,-183.7 c -12.5,0 -24.8,7.8 -35,22.2 -11.3,15.9 -18.4,37.7 -20.1,61.4 -1.7,23.7 2.3,46.3 11.2,63.6 8.5,16.6 20.5,26.2 33.6,27.2 13.2,0.9 26.4,-6.9 37.2,-22.1 11.3,-15.9 18.4,-37.7 20.1,-61.4 v 0 c 1.7,-23.7 -2.3,-46.3 -11.2,-63.6 -8.5,-16.6 -20.5,-26.2 -33.6,-27.2 -0.7,-0.1 -1.4,-0.1 -2.2,-0.1 z"
                   id="path473"
                   inkscape:connector-curvature="0"
                   style="fill:#1b77e3" /></g><g
                 id="g479"><path
                   d="m 5514.1,605.8 -20.4,-1.5 c -16.6,-1.2 -31.2,-12.6 -41.3,-32.2 -9.7,-18.8 -14,-43.2 -12.2,-68.5 1.8,-25.4 9.6,-48.8 21.8,-66.1 12.8,-18 28.9,-27.2 45.5,-26 l 20.4,1.5 -0.7,9.3 -20.4,-1.5 c -13.2,-0.9 -26.4,6.9 -37.2,22.1 -11.3,15.9 -18.4,37.7 -20.1,61.4 -1.7,23.7 2.3,46.3 11.2,63.6 8.5,16.6 20.5,26.2 33.6,27.2 l 20.4,1.5 z"
                   id="path477"
                   inkscape:connector-curvature="0"
                   style="fill:#1b77e3" /></g><g
                 id="g489"><g
                   id="g483"><rect
                     x="5516.5"
                     y="441.89999"
                     transform="matrix(0.9974,0.07153936,-0.07153936,0.9974,50.587,-393.6766)"
                     width="9.3999996"
                     height="134.89999"
                     id="rect481"
                     style="fill:#1b77e3" /></g><g
                   id="g487"><path
                     d="m 5519.4,563.5 c -0.7,0 -1.4,0 -2.1,-0.1 -15.6,-1.1 -23.1,-17.4 -23.5,-18.1 l 8.5,-3.8 -4.3,1.9 4.3,-1.9 c 0.1,0.1 5.6,11.9 15.6,12.6 4.9,0.4 8.8,-1.1 11.7,-4.3 3,-3.3 4.8,-8.3 5.3,-14.5 0.8,-10.7 -3.3,-16.4 -15.7,-21.6 -14.1,-5.9 -20.7,-16.2 -19.7,-30.7 1,-14.1 9.4,-28.7 25.5,-27.6 14.9,1.1 21.1,12.1 21.4,12.6 l -8.2,4.5 c -0.1,-0.3 -4.2,-7.1 -13.8,-7.8 -9.7,-0.7 -14.8,9.3 -15.5,18.9 -0.7,10.4 3.6,17 14,21.4 11.4,4.7 22.8,12.1 21.5,30.9 -0.6,8.3 -3.3,15.3 -7.7,20.2 -4.5,4.8 -10.4,7.4 -17.3,7.4 z"
                     id="path485"
                     inkscape:connector-curvature="0"
                     style="fill:#1b77e3" /></g></g></g><g
               id="g511"><g
                 id="g495"><path
                   d="m 6783.6,993.1 c -5.4,0 -11.1,-0.8 -17.1,-2.5 -17.1,-4.8 -34.5,-16 -49,-31.5 -14.5,-15.5 -24.5,-33.6 -28.1,-51 -3.8,-18.2 -0.2,-33.5 10,-43.1 10.3,-9.6 25.8,-12.2 43.7,-7.2 17.1,4.8 34.5,16 49,31.5 v 0 c 14.5,15.5 24.5,33.6 28.1,51 3.8,18.2 0.2,33.5 -10,43.1 -6.9,6.4 -16,9.7 -26.6,9.7 z m -57.5,-128.4 c -8.2,0 -15.2,2.4 -20.3,7.1 -7.8,7.3 -10.4,19.5 -7.3,34.4 3.3,15.7 12.5,32.2 25.8,46.5 13.4,14.3 29.2,24.5 44.7,28.8 14.6,4.1 27,2.3 34.8,-5 7.8,-7.3 10.4,-19.5 7.3,-34.4 -3.3,-15.7 -12.5,-32.2 -25.8,-46.5 -13.4,-14.3 -29.2,-24.5 -44.7,-28.8 -5.2,-1.4 -10,-2.1 -14.5,-2.1 z"
                   id="path493"
                   inkscape:connector-curvature="0"
                   style="fill:#1b77e3" /></g><g
                 id="g499"><path
                   d="m 6771.2,1004.6 c -5.4,0 -11.1,-0.8 -17.1,-2.5 -17.1,-4.8 -34.5,-16 -49,-31.5 -14.5,-15.5 -24.5,-33.6 -28.1,-51 -3.8,-18.2 -0.2,-33.5 10,-43.1 l 12.4,-11.6 6.4,6.8 -12.4,11.6 c -7.8,7.3 -10.4,19.5 -7.3,34.4 3.3,15.7 12.5,32.2 25.8,46.5 13.4,14.3 29.2,24.5 44.7,28.8 14.6,4.1 27,2.3 34.8,-5 l 12.4,-11.6 6.4,6.8 -12.4,11.6 c -6.8,6.6 -16,9.8 -26.6,9.8 z"
                   id="path497"
                   inkscape:connector-curvature="0"
                   style="fill:#1b77e3" /></g><g
                 id="g509"><g
                   id="g503"><rect
                     x="6698.8999"
                     y="919.40002"
                     transform="matrix(0.6832,0.7303,-0.7303,0.6832,2814.9673,-4640.0059)"
                     width="111.9"
                     height="9.3999996"
                     id="rect501"
                     style="fill:#1b77e3" /></g><g
                   id="g507"><path
                     d="m 6770.5,963.2 c -5.1,0 -9.1,-1.3 -9.4,-1.4 l 3,-8.9 c 0.1,0 9.9,3.1 15.7,-2.2 2.8,-2.6 4,-5.6 3.8,-8.9 -0.3,-3.5 -2.3,-7.3 -5.7,-10.9 -5.9,-6.3 -11.2,-6.9 -21.1,-2.4 -11.9,5.4 -22.2,3.6 -30.7,-5.5 -8.5,-9.1 -12.1,-23.1 -2.4,-32.2 9.3,-8.7 20,-6.2 20.5,-6.1 l -2.3,9.1 c -0.2,0 -6.3,-1.3 -11.8,3.8 -5.5,5.1 -2.4,13.4 2.8,19 5.7,6 11.8,7.1 20,3.4 9.6,-4.4 20.8,-7.2 31.8,4.5 4.9,5.2 7.7,10.9 8.2,16.6 0.5,6.2 -1.8,11.9 -6.7,16.5 -4.9,4.4 -10.8,5.6 -15.7,5.6 z"
                     id="path505"
                     inkscape:connector-curvature="0"
                     style="fill:#1b77e3" /></g></g></g><g
               id="g531"><g
                 id="g515"><path
                   d="m 6808.2,502.6 c -19.8,0 -39.4,-11.4 -55.6,-32.5 -17.3,-22.5 -28.9,-53.5 -32.6,-87.4 -3.7,-33.9 0.8,-66.7 12.8,-92.4 12.3,-26.5 31.1,-42.4 52.8,-44.8 21.8,-2.4 43.5,9 61.3,32.2 17.3,22.5 28.9,53.5 32.6,87.4 3.7,33.9 -0.8,66.7 -12.8,92.4 -12.3,26.5 -31.1,42.4 -52.8,44.8 -1.9,0.2 -3.8,0.3 -5.7,0.3 z m -16.9,-248 c -1.5,0 -3.1,0.1 -4.6,0.3 -18.4,2 -34.5,16 -45.4,39.4 -11.3,24.2 -15.5,55.2 -11.9,87.4 3.6,32.2 14.5,61.6 30.7,82.7 15.7,20.5 34.5,30.6 52.9,28.6 18.4,-2 34.5,-16 45.4,-39.4 11.3,-24.2 15.5,-55.2 11.9,-87.4 v 0 c -3.6,-32.2 -14.5,-61.6 -30.7,-82.7 -14.5,-18.8 -31.5,-28.9 -48.3,-28.9 z"
                   id="path513"
                   inkscape:connector-curvature="0"
                   style="fill:#1b77e3" /></g><g
                 id="g519"><path
                   d="m 6780.8,505.6 c -19.8,0 -39.4,-11.4 -55.6,-32.5 -17.3,-22.5 -28.9,-53.5 -32.6,-87.4 -3.7,-33.9 0.8,-66.7 12.8,-92.4 12.3,-26.5 31.1,-42.4 52.8,-44.8 l 27.5,-3 1,9.3 -27.5,3 c -18.4,2 -34.5,16 -45.4,39.4 -11.3,24.2 -15.5,55.2 -11.9,87.4 3.6,32.2 14.5,61.6 30.7,82.7 15.7,20.5 34.5,30.6 52.9,28.6 l 27.5,-3 1,9.3 -27.5,3 c -1.9,0.3 -3.8,0.4 -5.7,0.4 z"
                   id="path517"
                   inkscape:connector-curvature="0"
                   style="fill:#1b77e3" /></g><g
                 id="g529"><g
                   id="g523"><rect
                     x="6708.7998"
                     y="369.20001"
                     transform="matrix(0.1096,0.994,-0.994,0.1096,6426.084,-6426.0625)"
                     width="182.39999"
                     height="9.3999996"
                     id="rect521"
                     style="fill:#1b77e3" /></g><g
                   id="g527"><path
                     d="m 6804.6,445.3 c -18.3,0 -30.3,-17 -30.8,-17.8 l 7.7,-5.3 -3.8,2.7 3.8,-2.7 c 0.1,0.2 10.8,15.2 25.4,13.6 14.2,-1.6 21.4,-13.1 19.5,-31 -1.7,-15.2 -9.1,-22.3 -27.5,-26.3 -19.4,-4.2 -30.3,-15.9 -32.4,-34.6 -1.1,-9.7 0.5,-19 4.3,-26.2 4.5,-8.6 12.1,-13.9 21.4,-14.9 19.2,-2.1 29.6,10.4 30,11 l -7.3,5.9 c -0.3,-0.3 -7.8,-9.1 -21.8,-7.6 -14.2,1.6 -19,17.1 -17.5,30.8 1.6,14.7 9.6,23.1 25.1,26.4 15.7,3.4 32.1,10.2 34.8,34.4 2.5,23 -8.4,39.2 -27.7,41.3 -1.1,0.2 -2.2,0.3 -3.2,0.3 z"
                     id="path525"
                     inkscape:connector-curvature="0"
                     style="fill:#1b77e3" /></g></g></g><g
               id="g551"><g
                 id="g535"><path
                   d="m 6287.3,639.1 c -2.4,0 -4.9,-0.1 -7.3,-0.4 -25.8,-3.1 -48,-22.3 -62.4,-54 -14.1,-30.9 -19.1,-70.3 -14.3,-110.9 l 4.6,0.6 -4.6,-0.6 c 4.9,-40.6 19.1,-77.7 40,-104.4 21.5,-27.4 47.5,-40.8 73.4,-37.7 25.8,3.1 48,22.3 62.4,54 14.1,30.9 19.1,70.3 14.3,110.9 -4.9,40.6 -19.1,77.7 -40,104.4 -19.5,24.8 -42.7,38.1 -66.1,38.1 z m 22.2,-298.6 c -20.5,0 -41.1,12.1 -58.7,34.6 -19.9,25.4 -33.4,60.8 -38.1,99.8 v 0 c -4.7,38.9 0.1,76.5 13.5,105.9 13,28.6 32.5,45.9 55,48.5 22.5,2.7 45.5,-9.5 64.9,-34.2 19.9,-25.4 33.4,-60.8 38.1,-99.8 4.7,-38.9 -0.1,-76.5 -13.5,-105.9 -13,-28.6 -32.5,-45.9 -55,-48.5 -2.1,-0.2 -4.2,-0.4 -6.2,-0.4 z"
                   id="path533"
                   inkscape:connector-curvature="0"
                   style="fill:#1b77e3" /></g><g
                 id="g539"><path
                   d="m 6320.4,643 c -2.4,0 -4.9,-0.1 -7.3,-0.4 l -33,-4 1.1,-9.3 33,4 c 22.5,2.7 45.5,-9.5 64.9,-34.2 19.9,-25.4 33.4,-60.8 38.1,-99.8 4.7,-38.9 -0.1,-76.5 -13.5,-105.9 -13,-28.6 -32.5,-45.9 -55,-48.5 l -33,-4 1.1,-9.3 33,4 c 25.8,3.1 48,22.3 62.4,54 14.1,30.9 19.1,70.3 14.3,110.9 -4.8,40.6 -19.1,77.7 -40,104.4 -19.5,24.8 -42.7,38.1 -66.1,38.1 z"
                   id="path537"
                   inkscape:connector-curvature="0"
                   style="fill:#1b77e3" /></g><g
                 id="g549"><g
                   id="g543"><rect
                     x="6293.5"
                     y="375.20001"
                     transform="matrix(0.9929,0.1188,-0.1188,0.9929,102.2633,-744.9392)"
                     width="9.3999996"
                     height="219.7"
                     id="rect541"
                     style="fill:#1b77e3" /></g><g
                   id="g547"><path
                     d="m 6292.2,570 c -1.4,0 -2.7,-0.1 -4.2,-0.2 -11.6,-1.4 -20.8,-7 -26.4,-16.2 -5.3,-8.6 -7.2,-19.9 -5.7,-32.8 3.4,-28.5 22.9,-36.4 41.5,-40.2 19.2,-4 29.1,-14.3 31.3,-32.4 1.1,-9.6 -0.2,-18.7 -3.8,-25.7 -3.8,-7.4 -9.8,-11.7 -17.7,-12.7 -17.5,-2.1 -27.1,9.1 -27.2,9.2 l -7.2,-6 c 0.5,-0.6 12.9,-15.2 35.5,-12.5 11,1.3 19.6,7.4 24.9,17.6 4.5,8.6 6.2,19.7 4.8,31.1 -2.6,22.1 -15.6,35.7 -38.6,40.5 -19.2,4 -31.6,10.8 -34.2,32.2 -1.3,10.8 0.2,20 4.4,26.8 4.2,6.8 10.7,10.8 19.6,11.8 18.1,2.2 31.5,-16.3 31.6,-16.5 l 7.6,5.4 c -0.7,0.9 -14.9,20.6 -36.2,20.6 z"
                     id="path545"
                     inkscape:connector-curvature="0"
                     style="fill:#1b77e3" /></g></g></g><g
               id="g571"><g
                 id="g555"><path
                   d="m 7059.5,684 c -5.1,0 -10.2,-0.3 -15.4,-0.9 -21.1,-2.5 -40.4,-9.9 -54.4,-20.8 -14.6,-11.5 -21.8,-25.5 -20.1,-39.4 1.7,-14 11.9,-25.9 28.8,-33.6 16.1,-7.3 36.6,-10 57.7,-7.5 21.1,2.5 40.4,9.9 54.4,20.8 14.6,11.5 21.8,25.5 20.1,39.4 -1.7,14 -11.9,25.9 -28.8,33.6 -12.2,5.5 -26.8,8.4 -42.3,8.4 z m -18.8,-93.9 c -14.2,0 -27.4,2.6 -38.4,7.6 -13.8,6.3 -22.1,15.6 -23.4,26.2 -1.3,10.6 4.6,21.6 16.6,31 12.6,9.9 30.3,16.6 49.7,18.9 19.4,2.3 38.1,-0.1 52.7,-6.7 13.8,-6.3 22.1,-15.6 23.4,-26.2 1.3,-10.6 -4.6,-21.6 -16.6,-31 -12.6,-9.9 -30.3,-16.6 -49.7,-18.9 v 0 c -4.8,-0.6 -9.6,-0.9 -14.3,-0.9 z"
                   id="path553"
                   inkscape:connector-curvature="0"
                   style="fill:#1b77e3" /></g><g
                 id="g559"><path
                   d="m 7057.5,700.8 c -5.1,0 -10.2,-0.3 -15.4,-0.9 -21.1,-2.5 -40.4,-9.9 -54.4,-20.8 -14.6,-11.5 -21.8,-25.5 -20.1,-39.4 l 2,-16.8 9.3,1.1 -2,16.8 c -1.3,10.6 4.6,21.6 16.6,31 12.6,9.9 30.3,16.6 49.7,18.9 19.4,2.3 38.1,-0.1 52.7,-6.7 13.8,-6.3 22.1,-15.6 23.4,-26.2 l 2,-16.8 9.3,1.1 -2,16.8 c -1.7,14 -11.9,25.9 -28.8,33.6 -12.2,5.4 -26.8,8.3 -42.3,8.3 z"
                   id="path557"
                   inkscape:connector-curvature="0"
                   style="fill:#1b77e3" /></g><g
                 id="g569"><g
                   id="g563"><rect
                     x="6994.2002"
                     y="627.5"
                     transform="matrix(0.993,0.1183,-0.1183,0.993,124.2878,-829.5398)"
                     width="111.9"
                     height="9.3999996"
                     id="rect561"
                     style="fill:#1b77e3" /></g><g
                   id="g567"><path
                     d="m 7079.2,657 -3.5,-8.7 c 0.1,0 9.6,-4 10.5,-11.8 1.3,-10.9 -9.5,-13.4 -14.2,-13.9 -8.6,-1 -13,1.9 -17.7,11.8 -5.6,11.8 -14.7,17 -27,15.6 -12.4,-1.5 -24.2,-9.9 -22.6,-23.1 1.5,-12.7 11.3,-17.6 11.7,-17.8 l 4.1,8.4 c -0.2,0.1 -5.7,3 -6.5,10.5 -0.9,7.4 6.8,11.8 14.4,12.7 8.2,1 13.6,-2.2 17.4,-10.3 4.5,-9.5 11.3,-18.9 27.2,-17 15.2,1.8 24,11.4 22.4,24.3 -1.4,13.3 -15.6,19.1 -16.2,19.3 z"
                     id="path565"
                     inkscape:connector-curvature="0"
                     style="fill:#1b77e3" /></g></g></g><g
               id="g591"><g
                 id="g575"><path
                   d="m 5328.6,900.8 c -8.3,0 -17.4,-2 -26.8,-5.9 -19.5,-8.2 -38.5,-24 -53.5,-44.6 -14.9,-20.6 -24.1,-43.5 -25.9,-64.6 -1.8,-22 4.6,-39.4 18,-49.2 13.4,-9.8 32,-10.5 52.4,-2 19.5,8.2 38.5,24 53.5,44.6 14.9,20.6 24.1,43.5 25.9,64.6 1.8,22 -4.6,39.4 -18,49.2 -7.2,5.3 -15.9,7.9 -25.6,7.9 z M 5266.1,738 c -7.7,0 -14.5,2 -20.1,6.1 -10.7,7.8 -15.7,22.3 -14.2,40.9 1.6,19.4 10.2,40.7 24.1,59.9 14,19.2 31.5,33.9 49.5,41.4 17.2,7.2 32.5,6.9 43.2,-0.9 10.7,-7.8 15.7,-22.3 14.2,-40.9 -1.6,-19.4 -10.2,-40.7 -24.1,-59.9 v 0 c -14,-19.2 -31.5,-33.9 -49.5,-41.4 -8.2,-3.5 -16,-5.2 -23.1,-5.2 z"
                   id="path573"
                   inkscape:connector-curvature="0"
                   style="fill:#1b77e3" /></g><g
                 id="g579"><path
                   d="m 5312.1,912.8 c -8.3,0 -17.4,-2 -26.8,-5.9 -19.5,-8.2 -38.5,-24 -53.5,-44.6 -14.9,-20.6 -24.1,-43.5 -25.9,-64.6 -1.8,-22 4.6,-39.4 18,-49.2 l 16.5,-12 5.5,7.6 -16.5,12 c -10.7,7.8 -15.7,22.3 -14.2,40.9 1.6,19.4 10.2,40.7 24.1,59.9 14,19.2 31.5,33.9 49.5,41.4 17.2,7.2 32.5,6.9 43.2,-0.9 l 16.5,-12 5.5,7.6 -16.5,12 c -7,5.2 -15.7,7.8 -25.4,7.8 z"
                   id="path577"
                   inkscape:connector-curvature="0"
                   style="fill:#1b77e3" /></g><g
                 id="g589"><g
                   id="g583"><rect
                     x="5230"
                     y="809.90002"
                     transform="matrix(0.5879,0.8089,-0.8089,0.5879,2841.7678,-3949.428)"
                     width="134.89999"
                     height="9.3999996"
                     id="rect581"
                     style="fill:#1b77e3" /></g><g
                   id="g587"><path
                     d="m 5314.5,863 c -7.9,0 -14.4,-3 -14.8,-3.2 l 4,-8.4 c 0.1,0.1 11.9,5.5 20,-0.4 11.4,-8.3 4.4,-20.5 0.9,-25.3 -6.3,-8.7 -13.1,-10.4 -25.9,-6.4 -14.6,4.6 -26.3,1 -34.8,-10.8 -4.4,-6 -6.9,-12.8 -7.1,-19.1 -0.2,-7.6 2.9,-14.1 8.8,-18.4 12.1,-8.8 24,-4.3 24.5,-4.1 l -3.4,8.7 c -0.3,-0.1 -7.8,-2.7 -15.6,3 -3.4,2.5 -5.1,6.1 -5,10.6 0.1,4.4 2.1,9.5 5.3,13.9 6.1,8.5 13.7,10.7 24.4,7.3 11.8,-3.7 25.3,-5.4 36.3,9.8 10.5,14.4 9.3,29.5 -2.9,38.4 -4.7,3.3 -9.9,4.4 -14.7,4.4 z"
                     id="path585"
                     inkscape:connector-curvature="0"
                     style="fill:#1b77e3" /></g></g></g><g
               id="g595"><path
                 d="m 7227.8,684.7 c -12.1,0 -22,-9.9 -22,-22 0,-12.1 9.9,-22 22,-22 12.1,0 22,9.9 22,22 0,12.2 -9.9,22 -22,22 z m 0,-34.6 c -7,0 -12.6,5.7 -12.6,12.6 0,7 5.7,12.6 12.6,12.6 7,0 12.6,-5.7 12.6,-12.6 0,-6.9 -5.6,-12.6 -12.6,-12.6 z"
                 id="path593"
                 inkscape:connector-curvature="0"
                 style="fill:#1b77e3" /></g><g
               id="g599"><path
                 d="m 5821.1,795.7 c -3,0 -6,-0.6 -8.9,-1.9 -11.1,-4.9 -16.1,-17.9 -11.2,-29 2.4,-5.4 6.7,-9.5 12.2,-11.6 5.5,-2.1 11.4,-2 16.8,0.4 11.1,4.9 16.1,17.9 11.2,29 v 0 c -3.6,8.2 -11.7,13.1 -20.1,13.1 z m 0,-34.7 c -1.5,0 -3.1,0.3 -4.6,0.9 -3.1,1.2 -5.6,3.6 -7,6.7 -2.8,6.4 0.1,13.8 6.4,16.6 6.4,2.8 13.8,-0.1 16.6,-6.4 v 0 c 2.8,-6.4 -0.1,-13.8 -6.4,-16.6 -1.5,-0.8 -3.3,-1.2 -5,-1.2 z"
                 id="path597"
                 inkscape:connector-curvature="0"
                 style="fill:#1b77e3" /></g><g
               id="g603"><path
                 d="m 6548.5,620.1 c -7.4,0 -14.4,-4.3 -17.5,-11.5 -2,-4.7 -2.1,-9.8 -0.2,-14.6 1.9,-4.7 5.5,-8.4 10.2,-10.5 4.7,-2 9.8,-2.1 14.6,-0.2 4.7,1.9 8.4,5.5 10.5,10.2 4.2,9.6 -0.3,20.9 -9.9,25 -2.7,1.1 -5.2,1.6 -7.7,1.6 z m -0.1,-28.8 c -1.3,0 -2.6,0.3 -3.8,0.8 -2.4,1 -4.2,2.9 -5.2,5.3 -1,2.4 -0.9,5 0.1,7.4 2.1,4.9 7.8,7.2 12.7,5.1 4.9,-2.1 7.2,-7.8 5.1,-12.7 -1,-2.4 -2.9,-4.2 -5.3,-5.2 -1.2,-0.4 -2.4,-0.7 -3.6,-0.7 z"
                 id="path601"
                 inkscape:connector-curvature="0"
                 style="fill:#1b77e3" /></g><g
               id="g607"><path
                 d="m 5883.7,401.7 c -3.8,0 -7.6,-0.8 -11.2,-2.4 -14,-6.2 -20.4,-22.7 -14.2,-36.7 6.2,-14 22.7,-20.4 36.7,-14.2 14,6.2 20.4,22.7 14.2,36.7 -4.6,10.4 -14.8,16.6 -25.5,16.6 z m 0,-46.2 c -7.1,0 -13.9,4.1 -16.9,11 -4.1,9.3 0.1,20.2 9.4,24.3 9.3,4.1 20.2,-0.1 24.3,-9.4 4.1,-9.3 -0.1,-20.2 -9.4,-24.3 -2.3,-1.1 -4.9,-1.6 -7.4,-1.6 z"
                 id="path605"
                 inkscape:connector-curvature="0"
                 style="fill:#1b77e3" /></g><g
               id="g611"><path
                 d="m 7051.8,479.2 c -9.2,0 -18.1,-5.4 -22,-14.4 -2.5,-5.9 -2.6,-12.3 -0.3,-18.3 2.4,-5.9 6.9,-10.6 12.7,-13.1 5.9,-2.5 12.3,-2.6 18.3,-0.3 5.9,2.4 10.6,6.9 13.1,12.7 5.2,12.1 -0.4,26.2 -12.5,31.4 -3,1.4 -6.2,2 -9.3,2 z m 0,-38.4 c -2,0 -3.9,0.4 -5.7,1.2 -3.6,1.5 -6.3,4.4 -7.7,8 -1.4,3.6 -1.4,7.5 0.2,11.1 3.2,7.3 11.7,10.7 19.1,7.6 7.3,-3.2 10.7,-11.7 7.6,-19.1 -1.5,-3.6 -4.4,-6.3 -8,-7.7 -1.9,-0.7 -3.7,-1.1 -5.5,-1.1 z"
                 id="path609"
                 inkscape:connector-curvature="0"
                 style="fill:#1b77e3" /></g></g><g
             id="g647"><g
               id="g617"><path
                 d="m 6946.3,1088.3 c -2.8,-2.3 -69.4,-57.2 -49,-98.8 4.2,-8.5 9.1,-13.3 15.2,-14.5 9.3,-1.9 17.4,5.3 23.9,11 1.5,1.3 3.6,3.1 5,4.2 0.3,-1.3 0.5,-3.5 0.5,-7.3 0,-13.6 -9.7,-17.6 -26.9,-23.6 -20.5,-7.1 -46,-16 -44.3,-55.3 0.7,-17.2 3.6,-25.8 9.7,-28.7 6.9,-3.3 14.3,2.2 22.2,7.9 13.4,9.9 22.9,15.5 32.5,5.2 8.7,-9.4 2.9,-17.3 -13.3,-34.4 -8.8,-9.3 -18.9,-19.9 -24.4,-32.4 -6.6,-15 -5.7,-30 2.8,-45.8 8.4,-15.7 21.8,-28.2 37.7,-35.4 15.5,-7 32.1,-8.3 46.7,-3.8 14,4.4 25.1,13.9 32.1,27.5 7.8,15.1 10.4,34.5 7.7,57.7 -4.6,39.3 -3.5,51.4 -2.4,55.1 2.7,-2 7.5,-8 10.8,-12.1 4.4,-5.5 9.4,-11.6 14.4,-16.3 10.2,-9.3 25.5,-8.4 37.2,2.1 17,15.3 22,47 -5,83.4 -24.8,33.4 -20.4,41.1 -20.4,41.2 1.7,1.3 13.2,-2 24.8,-15.5 6.5,-7.5 12.8,-7.5 16.1,-6.8 6.7,1.4 12.2,7.8 15.1,17.6 4.1,13.5 3,31.9 -3.1,50.4 -7.5,22.9 -22.3,46.1 -42.9,67.1 l -6.7,-6.6 c 46.1,-47 49.1,-90.2 43.7,-108.2 -1.9,-6.2 -5,-10.5 -8.1,-11.2 -2.7,-0.6 -5.3,1.7 -7,3.7 -11.6,13.4 -28.7,23.9 -37.7,16.7 -8.9,-7.1 -2.6,-25.3 18.7,-54.1 23.5,-31.7 20.1,-58.4 6.3,-70.9 -8,-7.2 -18.1,-8.1 -24.6,-2.2 -4.6,4.2 -9.3,10.1 -13.5,15.3 -8.7,10.8 -14.9,18.6 -21.8,15.7 -6.9,-2.9 -9.2,-13.8 -3.2,-65.6 4.6,-39.7 -7.5,-67.1 -33.3,-75.2 -26.2,-8.2 -58.4,7 -73.3,34.7 -15.9,29.4 2.5,48.7 20.2,67.3 7.2,7.6 14,14.8 17.5,22.1 4.3,9.1 2.9,17.5 -4.1,25.1 -5.8,6.3 -11.7,8.6 -17.6,8.6 -10.2,0 -20,-7.2 -27.3,-12.6 -4,-3 -10.8,-7.9 -12.6,-7 -0.4,0.2 -3.6,2.2 -4.4,20.7 -1.4,32.4 17.8,39.1 38,46.1 16.3,5.7 33.2,11.6 33.2,32.5 0,7.4 -0.7,14.6 -5.7,16.9 -5.1,2.3 -9.9,-1.8 -15.4,-6.7 -5,-4.4 -11.1,-9.8 -15.8,-8.8 -3.7,0.7 -6.7,5.5 -8.6,9.4 -17.1,35 45.9,86.9 46.5,87.5 z"
                 id="path615"
                 inkscape:connector-curvature="0"
                 style="fill:#1b77e3" /></g><g
               id="g621"><path
                 d="m 7004.1,1084.8 c 0,-1.9 -4.2,-188 -52.7,-286.8 l 8.4,-4.1 c 20.8,42.4 36.2,104.2 45.6,183.8 7,59.1 8,106.5 8,107 z"
                 id="path619"
                 inkscape:connector-curvature="0"
                 style="fill:#1b77e3" /></g><g
               id="g625"><rect
                 x="6923.2998"
                 y="818.20001"
                 transform="matrix(0.9022,0.4313,-0.4313,0.9022,1034.4102,-2916.3611)"
                 width="50"
                 height="9.3999996"
                 id="rect623"
                 style="fill:#1b77e3" /></g><g
               id="g629"><rect
                 x="6981.5"
                 y="810.79999"
                 transform="matrix(0.9478,0.3189,-0.3189,0.9478,630.9819,-2184.0374)"
                 width="9.3999996"
                 height="48.700001"
                 id="rect627"
                 style="fill:#1b77e3" /></g><g
               id="g633"><rect
                 x="7014.7998"
                 y="915.20001"
                 transform="matrix(0.8178,0.5756,-0.5756,0.8178,1824.9867,-3867.2649)"
                 width="9.3999996"
                 height="66.199997"
                 id="rect631"
                 style="fill:#1b77e3" /></g><g
               id="g637"><rect
                 x="6945.6001"
                 y="931.90002"
                 transform="matrix(0.9002,0.4356,-0.4356,0.9002,1104.0924,-2943.4937)"
                 width="53.900002"
                 height="9.3999996"
                 id="rect635"
                 style="fill:#1b77e3" /></g><g
               id="g641"><rect
                 x="6957.7998"
                 y="1037"
                 transform="matrix(0.8621,0.5067,-0.5067,0.8621,1490.7903,-3395.594)"
                 width="54.700001"
                 height="9.3999996"
                 id="rect639"
                 style="fill:#1b77e3" /></g><g
               id="g645"><rect
                 x="7029.5"
                 y="1017.1"
                 transform="matrix(0.6963,0.7177,-0.7177,0.6963,2891.5962,-4729.0571)"
                 width="9.3999996"
                 height="70.900002"
                 id="rect643"
                 style="fill:#1b77e3" /></g></g><g
             id="g681"><g
               id="g651"><path
                 d="m 7098.4,1350.7 c -7.6,-21.1 -10.5,-41.8 -8.4,-60.1 1.7,-14.8 6.8,-28.1 14,-36.2 5.4,-6.1 11.6,-8.9 17,-7.7 2.7,0.6 7.5,2.8 9.8,10.5 3.2,11 8.6,16.7 10.6,17.5 0.8,-1.3 3.6,-8.1 -1.7,-33.2 -7.3,-34.2 6.6,-54.9 23.6,-60.2 12,-3.8 23.3,0.7 27.6,10.9 2.1,4.9 3.5,10.7 4.8,15.9 0.8,3 1.8,7.1 2.8,9.7 2.3,-3.5 6.6,-12.7 14.3,-36.6 10.5,-32.3 31.2,-49.8 55.4,-46.8 11.7,1.5 22.9,7.7 31.6,17.6 8.8,10.1 14.2,23.2 15,36.8 2,31.1 -22.4,40.9 -40.2,48.1 -16.2,6.5 -22,9.7 -19.3,18 2.8,8.5 8.9,8.7 22.6,5.9 7.6,-1.6 14.7,-3 18.9,1.9 3.6,4.3 3,11.3 -2.2,23.9 -11.6,28.3 -33.2,26.3 -49,24.8 -13.2,-1.3 -20.8,-1.5 -24.8,7.1 -0.6,1.3 -1,2.3 -1.3,3.1 0.9,-0.3 1.9,-0.6 2.8,-0.8 6.2,-1.8 14.6,-4.4 20.8,0.1 4.1,3 6.2,8.1 6.4,15.6 0.1,4.6 -0.8,9.2 -2.9,13.5 l -8.5,-3.9 c 1.4,-3.1 2.1,-6.2 2,-9.4 -0.1,-4.3 -1,-7.2 -2.5,-8.3 -2.5,-1.8 -8.4,0 -12.7,1.2 -5.4,1.6 -10.6,3.2 -13.8,-0.6 -3.2,-3.6 -1.3,-9.2 1.2,-14.6 6.9,-15.1 21.4,-13.7 34.2,-12.5 15.7,1.5 30.5,2.9 39.4,-19 4.2,-10.4 3.9,-13.6 3.7,-14.3 -1.5,-0.5 -6.5,0.5 -9.8,1.2 -10.3,2.1 -27.6,5.7 -33.4,-12.2 -5.7,-17.4 10.5,-23.9 24.7,-29.6 17.6,-7.1 35.9,-14.4 34.3,-38.8 -1.5,-23.2 -18.4,-43.3 -38.5,-45.8 -19.7,-2.5 -36.2,12.3 -45.3,40.4 -12.3,37.8 -17.5,44.8 -23.7,44.8 -0.1,0 -0.2,0 -0.3,0 -6.5,-0.2 -8.4,-7.9 -11.1,-18.5 -1.3,-5.1 -2.6,-10.3 -4.4,-14.6 -2.3,-5.5 -9,-7.8 -16.2,-5.6 -12.9,4.1 -23.2,20.9 -17.2,49.3 5.8,27.5 4.2,42.1 -5,44.4 -9.1,2.3 -18.2,-10.7 -22,-24.1 -0.4,-1.3 -1.3,-3.6 -2.8,-4 -1.6,-0.4 -4.7,1 -8,4.7 -9.3,10.5 -20.5,40.6 -3.8,86.9 z"
                 id="path649"
                 inkscape:connector-curvature="0"
                 style="fill:#1b77e3" /></g><g
               id="g655"><path
                 d="m 7155.5,1350.4 -8.3,-4.4 c 18.7,-35.4 67.6,-122.3 119,-164.3 l 5.9,7.2 c -50.1,41 -98.2,126.6 -116.6,161.5 z"
                 id="path653"
                 inkscape:connector-curvature="0"
                 style="fill:#1b77e3" /></g><g
               id="g659"><rect
                 x="7260.8999"
                 y="1187.3"
                 transform="matrix(0.01659229,0.9999,-0.9999,0.01659229,8351.0781,-6078.4639)"
                 width="9.3999996"
                 height="37.799999"
                 id="rect657"
                 style="fill:#1b77e3" /></g><g
               id="g663"><rect
                 x="7231.1001"
                 y="1184.3"
                 transform="matrix(0.9945,0.1047,-0.1047,0.9945,165.6196,-750.7068)"
                 width="9.3999996"
                 height="36.799999"
                 id="rect661"
                 style="fill:#1b77e3" /></g><g
               id="g667"><rect
                 x="7152.2998"
                 y="1265.2"
                 transform="matrix(0.1829,0.9831,-0.9831,0.1829,7113.1963,-6018.5918)"
                 width="50"
                 height="9.3999996"
                 id="rect665"
                 style="fill:#1b77e3" /></g><g
               id="g671"><rect
                 x="7208.6001"
                 y="1256.3"
                 transform="matrix(0.02132309,0.9998,-0.9998,0.02132309,8335.7568,-5962.187)"
                 width="9.3999996"
                 height="40.700001"
                 id="rect669"
                 style="fill:#1b77e3" /></g><g
               id="g675"><rect
                 x="7166.7998"
                 y="1324.2"
                 transform="matrix(0.1017,0.9948,-0.9948,0.1017,7779.8125,-5926.2446)"
                 width="9.3999996"
                 height="41.299999"
                 id="rect673"
                 style="fill:#1b77e3" /></g><g
               id="g679"><rect
                 x="7112.2998"
                 y="1325.4"
                 transform="matrix(0.3627,0.9319,-0.9319,0.3627,5784.8403,-5798.542)"
                 width="38.900002"
                 height="9.3999996"
                 id="rect677"
                 style="fill:#1b77e3" /></g></g></g><g
           id="g1358"><path
             d="M 7413.7,1821.1 H 5177.2 v 0 c 0,-20.9 16.9,-37.8 37.8,-37.8 h 2160.8 c 20.9,-0.1 37.9,16.9 37.9,37.8 z"
             id="path685"
             inkscape:connector-curvature="0"
             style="fill:#355389" /><g
             id="g703"><g
               id="g691"><path
                 d="m 6384.8,1556.6 h 672.6 c 0,0 -11.7,48.7 -11.7,101.6 0,51.4 11.7,101.6 11.7,101.6 h -672.6 c -23.9,0 -43.2,-19.3 -43.2,-43.2 v -116.8 c 0,-23.8 19.4,-43.2 43.2,-43.2 z"
                 id="path687"
                 inkscape:connector-curvature="0"
                 style="fill:#fae0b2" /><path
                 d="m 7066.6,1529 c 7.6,0 13.8,6.2 13.8,13.8 0,3.8 -1.5,7.3 -4.1,9.8 -2.5,2.5 -5.9,4.1 -9.8,4.1 h -9.1 -672.6 c -23.9,0 -43.2,19.3 -43.2,43.2 v 116.8 c 0,23.9 19.3,43.2 43.2,43.2 h 672.6 9.1 c 7.6,0 13.8,6.2 13.8,13.8 0,3.8 -1.5,7.2 -4.1,9.8 -2.5,2.5 -5.9,4.1 -9.8,4.1 h -681.7 c -39.1,0 -70.8,-31.7 -70.8,-70.8 V 1600 c 0,-39.1 31.7,-70.8 70.8,-70.8 h 681.9 z"
                 id="path689"
                 inkscape:connector-curvature="0"
                 style="fill:#184655" /></g><path
               d="m 6429.2,1595.9 c 39.8,-1.8 79.7,-3 119.5,-3.6 39.8,-0.7 79.7,-0.9 119.5,-1 39.8,0.1 79.7,0.3 119.5,1 39.8,0.6 79.7,1.8 119.5,3.6 -39.8,1.8 -79.7,3 -119.5,3.6 -39.8,0.7 -79.7,0.9 -119.5,1 -39.8,-0.1 -79.7,-0.3 -119.5,-1 -39.8,-0.6 -79.7,-1.8 -119.5,-3.6 z"
               id="path693"
               inkscape:connector-curvature="0"
               style="fill:#e5bd83" /><path
               d="m 6404.3,1658.2 c 15.1,-1.9 30.1,-2.9 45.2,-3.6 15,-0.7 30.1,-0.9 45.2,-1 15,0.1 30.1,0.3 45.2,1 15,0.7 30.1,1.7 45.1,3.6 -15,1.9 -30.1,2.9 -45.1,3.6 -15.1,0.7 -30.1,0.9 -45.2,1 -15,-0.1 -30.1,-0.3 -45.2,-1 -15.1,-0.7 -30.2,-1.7 -45.2,-3.6 z"
               id="path695"
               inkscape:connector-curvature="0"
               style="fill:#e5bd83" /><path
               d="m 6519.5,1722.1 c 15.1,-1.9 30.1,-2.9 45.2,-3.6 15,-0.7 30.1,-0.9 45.2,-1 15,0.1 30.1,0.3 45.1,1 15.1,0.7 30.1,1.7 45.1,3.6 -15,1.9 -30.1,2.9 -45.1,3.6 -15.1,0.7 -30.1,0.9 -45.1,1 -15,-0.1 -30.1,-0.3 -45.2,-1 -15.1,-0.7 -30.1,-1.7 -45.2,-3.6 z"
               id="path697"
               inkscape:connector-curvature="0"
               style="fill:#e5bd83" /><path
               d="m 6614.5,1684.7 c 34.8,-1.8 69.6,-3 104.3,-3.6 34.8,-0.7 69.6,-0.9 104.3,-1 34.8,0.1 69.6,0.3 104.3,1 34.8,0.6 69.6,1.8 104.3,3.6 -34.8,1.8 -69.6,3 -104.3,3.6 -34.8,0.7 -69.6,0.9 -104.3,1 -34.8,-0.1 -69.6,-0.3 -104.3,-1 -34.7,-0.6 -69.5,-1.8 -104.3,-3.6 z"
               id="path699"
               inkscape:connector-curvature="0"
               style="fill:#e5bd83" /><path
               d="m 6544.4,1781.2 c -20.4,-38.5 -20.4,-84.5 0,-123 -38.4,0 -76.8,0 -115.2,0 -20.4,38.5 -20.4,84.5 0,123 13.7,-10.5 28.8,-21.5 45.5,-32.8 21.7,11.3 45,22.3 69.7,32.8 z"
               id="path701"
               inkscape:connector-curvature="0"
               style="fill:#50bfa5" /></g><g
             id="g713"><rect
               x="6382.7998"
               y="1328.1"
               width="864.09998"
               height="200.8"
               id="rect705"
               style="fill:#fe875e" /><rect
               x="6468.1001"
               y="1328.1"
               width="51.099998"
               height="200.8"
               id="rect707"
               style="fill:#f7a491" /><rect
               x="7110.5"
               y="1328.1"
               width="51.099998"
               height="200.8"
               id="rect709"
               style="fill:#f7a491" /><path
               d="m 6382.8,1412.2 c 0,0 -65.4,31.5 -75.9,116.8 l 28,-23.4 9.9,23.4 c 0,0 6.4,-72.4 37.9,-100.4 v -16.4 z"
               id="path711"
               inkscape:connector-curvature="0"
               style="fill:#efefef" /></g><g
             id="g735"><path
               d="m 5642.3,973.6 v -54.7 c 0,-15.1 -12.3,-27.3 -27.3,-27.3 h -13.2 c -15.1,0 -27.3,12.3 -27.3,27.3 v 54.7 H 5555 v -54.7 c 0,-25.8 21.1,-46.8 46.8,-46.8 h 13.2 c 25.8,0 46.8,21.1 46.8,46.8 v 54.7 z"
               id="path715"
               inkscape:connector-curvature="0"
               style="fill:#261751" /><g
               id="g727"><path
                 d="m 5995.5,1571.4 v 56.6 c 0,39 -31.7,70.7 -70.7,70.7 v -17.7 -46 -134.3 c 19.5,0 37.2,7.9 50,20.7 12.8,12.8 20.7,30.5 20.7,50 z"
                 id="path717"
                 inkscape:connector-curvature="0"
                 style="fill:#4a46b6" /><path
                 d="m 5302.6,1681 v 17.7 c -39,0 -70.7,-31.7 -70.7,-70.7 v -56.5 c 0,-19.6 7.9,-37.2 20.7,-50.1 12.8,-12.8 30.5,-20.7 50,-20.7 V 1635 Z"
                 id="path719"
                 inkscape:connector-curvature="0"
                 style="fill:#4a46b6" /><path
                 d="m 5924.8,1635 v 45.9 c 0,58.6 -47.5,106 -106,106 h -410.1 c -58.6,0 -106,-47.5 -106,-106 V 1635 c 0,-48.8 39.6,-88.3 88.4,-88.3 h 445.4 c 48.8,0 88.3,39.5 88.3,88.3 z"
                 id="path721"
                 inkscape:connector-curvature="0"
                 style="fill:#8886f2" /><path
                 d="M 5924.8,1500.7 V 1635 c 0,-48.8 -39.5,-88.3 -88.3,-88.3 H 5391 c -48.8,0 -88.4,39.5 -88.4,88.3 v -134.3 -243.9 c 0,-2.6 0,-5.4 0.1,-8 2.3,65.3 56,117.6 121.9,117.6 h 378.2 c 65.9,0 119.6,-52.3 121.9,-117.6 0.1,2.6 0.1,5.4 0.1,8 z"
                 id="path723"
                 inkscape:connector-curvature="0"
                 style="fill:#383589" /><path
                 d="m 5924.7,1248.4 c 0,0.1 0,0.3 0,0.4 -2.3,65.3 -56,117.6 -121.9,117.6 h -378.2 c -66,0 -119.6,-52.3 -121.9,-117.6 0,-0.1 0,-0.3 0,-0.4 4.5,-167.9 142.1,-302.7 311,-302.7 85.9,0 163.7,34.9 220,91.1 54.3,54.4 88.8,129 91,211.6 z"
                 id="path725"
                 inkscape:connector-curvature="0"
                 style="fill:#8886f2" /></g><path
               d="m 5629.6,1408.8 h -42.4 c -22.4,0 -40.7,-18.3 -40.7,-40.7 V 1346 c 0,-22.4 18.3,-40.7 40.7,-40.7 h 42.4 c 22.4,0 40.7,18.3 40.7,40.7 v 22.1 c 0,22.4 -18.3,40.7 -40.7,40.7 z"
               id="path729"
               inkscape:connector-curvature="0"
               style="fill:#261751" /><g
               id="g733"><path
                 d="m 5842.3,1587.8 h -452.5 c -5.8,0 -10.5,-4.7 -10.5,-10.5 0,-5.8 4.7,-10.5 10.5,-10.5 h 452.5 c 5.8,0 10.5,4.7 10.5,10.5 0,5.8 -4.7,10.5 -10.5,10.5 z"
                 id="path731"
                 inkscape:connector-curvature="0"
                 style="fill:#383589" /></g></g><g
             id="g753"><g
               id="g745"><path
                 d="m 6571.4,1222.1 c 0,0 19.9,46.1 -0.7,102.7 l -78.2,-4.3 -196,-10.7 v 0 c 0,0 5.9,-22.3 5.9,-48.5 0,-24 -5.9,-48.5 -5.9,-48.5 v 0 l 193.2,6.6 z"
                 id="path737"
                 inkscape:connector-curvature="0"
                 style="fill:#fae0b2" /><path
                 d="m 6292.4,1309.6 4.1,0.2 196,10.7 78.2,4.3 c 20.6,-56.6 0.7,-102.7 0.7,-102.7 l -81.7,-2.8 -193.2,-6.6 -4.7,-0.1 c -6.2,-0.2 -11.1,-5.3 -11.1,-11.5 0,-6.3 5.2,-11.5 11.4,-11.5 0.2,0 0.3,0 0.5,0 l 290.2,10.7 c 0,0 38.3,63.7 0,146.1 l -291.6,-13.7 c -6.3,-0.3 -11.1,-5.6 -11,-11.9 0.2,-6.2 5.4,-11.1 11.6,-11.1 0.3,-0.1 0.4,-0.1 0.6,-0.1 z"
                 id="path739"
                 inkscape:connector-curvature="0"
                 style="fill:#3c8f7c" /><polygon
                 points="6292.7,1189.6 7088,1179.6 7083.6,1179.7 6582.9,1200.3 "
                 id="polygon741"
                 style="fill:#3c8f7c" /><path
                 d="m 6592.6,1199.9 491,-20.2 c 24.5,-1 44.9,18.6 45,43.1 l 0.3,61.2 c 0.1,23.4 -18.3,42.7 -41.6,43.5 l -504.4,18.9 c 38.3,-82.4 0,-146.1 0,-146.1 z"
                 id="path743"
                 inkscape:connector-curvature="0"
                 style="fill:#184655" /></g><path
               d="m 6570,1261.6 c -15.2,1.1 -30.3,1.2 -45.3,1.1 -15.1,-0.1 -30.2,-0.7 -45.2,-1.5 -15,-0.9 -30.1,-1.9 -45.1,-3.5 -15,-1.5 -30,-3.3 -45,-6.1 15.2,-1.1 30.3,-1.2 45.3,-1.1 15.1,0.1 30.2,0.7 45.2,1.5 15,0.9 30.1,2 45.1,3.5 15,1.5 30,3.4 45,6.1 z"
               id="path747"
               inkscape:connector-curvature="0"
               style="fill:#e5bd83" /><path
               d="m 6409.8,1285.8 c -16.8,1.1 -33.4,0.5 -50.1,-0.6 -16.6,-1.2 -33.2,-2.8 -49.7,-6.2 16.8,-1.1 33.4,-0.5 50.1,0.6 16.7,1.2 33.2,2.8 49.7,6.2 z"
               id="path749"
               inkscape:connector-curvature="0"
               style="fill:#e5bd83" /><path
               d="m 6436.7,1351.8 c -15.3,-22.5 -13.8,-76.1 2.8,-97.7 30.1,0.9 59.1,4.6 89.1,5.5 -16.6,21.6 -17,72.3 -1.7,94.9 -18.7,-6.7 -36.9,-15.3 -53.8,-25.1 -13.1,8.8 -25,16.6 -36.4,22.4 z"
               id="path751"
               inkscape:connector-curvature="0"
               style="fill:#f47458" /></g><g
             id="g814"><g
               id="g774"><path
                 d="m 5406,1258.9 c 0,0 58,-12.2 56.2,6.8 -0.8,8.1 -25.9,44.4 -26.5,47.4 -0.4,2.2 -0.9,4.5 -1.3,6.7 -0.5,2.2 -1,4.4 -1.5,6.7 -0.6,2.3 -1.1,4.5 -1.7,6.7 l -2,6.8 c -0.3,1.1 -0.7,2.3 -1.1,3.4 l -1.2,3.5 -1.2,3.4 -1.4,3.5 -1.4,3.5 c -0.2,0.6 -0.5,1.2 -0.7,1.8 l -0.9,1.8 -1.7,3.6 -0.9,1.8 -0.4,0.9 -0.7,1.4 c -1.1,1.9 -2.1,3.8 -3.3,5.5 -1.2,1.7 -2.5,3.4 -3.9,5 -1.4,1.5 -2.8,3 -4.3,4.4 -1.5,1.3 -3,2.5 -4.5,3.7 -6.2,4.5 -12.4,7.5 -18.3,9.4 -1.5,0.5 -3,1 -4.4,1.3 l -4.3,1.1 c -2.8,0.6 -5.5,1.1 -8.2,1.4 -5.3,0.7 -10.4,0.9 -15.4,0.8 -9.9,-0.1 -11.1,-46.2 -4.5,-47.9 3.3,-0.8 6.4,-1.8 9.1,-2.9 0.7,-0.3 1.4,-0.5 2,-0.8 0.6,-0.3 1.2,-0.6 1.8,-0.9 l 1.6,-0.9 c 0.6,-0.3 0.9,-0.6 1.4,-0.9 1.7,-1.2 2.6,-5.3 2.6,-5.3 l 0.6,-2.1 0.3,-1.1 c 0.1,-0.4 0.2,-0.8 0.3,-1.2 l 0.5,-2.4 0.6,-2.3 0.5,-2.5 c 0.3,-1.7 0.7,-3.3 0.9,-5.1 0.6,-3.5 1.8,-15.6 3.3,-31.6 1.7,-16.8 14.2,-30.1 34,-34.4 z"
                 id="path757"
                 inkscape:connector-curvature="0"
                 style="fill:#f47458" /><g
                 id="XMLID_236_"><g
                   id="g763"><path
                     d="m 5515.9,1396.9 c 1,-13 9,-38.1 9.7,-58.1 1.4,-41.7 0.4,-81.8 -66.5,-82.2 -0.1,0 -0.2,0 -0.3,0 -4.4,-0.8 -7.7,-1.1 -9.2,-1.2 -0.7,-0.1 -1,-0.1 -1,-0.1 -31.2,-0.9 -53.6,2.4 -56.3,25.1 -1.6,13.8 -13.1,19.9 -15.1,34.8 -2.7,19.4 2.8,22.6 7.7,38.8 3.9,12.8 -30.6,99.2 -30.6,99.2 l 166.1,3.2 c -0.1,-0.2 -6.9,-28.7 -4.5,-59.5 z"
                     id="path759"
                     inkscape:connector-curvature="0"
                     style="fill:#f8c558" /><path
                     d="m 5449.6,1255.3 c 1.5,0.1 4.8,0.5 9.2,1.2 -3,-0.6 -6.1,-1 -9.2,-1.2 z"
                     id="path761"
                     inkscape:connector-curvature="0"
                     style="fill:#587cf8" /></g></g><g
                 id="g772"><path
                   d="m 5457.4,1219 -43.1,7.4 5.7,16.3 v 0.1 l 1.6,4.5 1.5,4.3 0.3,0.9 5.2,0.6 -3.4,3.3 c 0,0 1.7,6.8 15.2,6.8 13.6,0 18.4,-6.6 18.4,-6.6 z"
                   id="path766"
                   inkscape:connector-curvature="0"
                   style="fill:#fae0b2" /><path
                   d="m 5458.8,1205.8 c 0.9,20.2 -10.2,37 -29.6,42.8 -14.9,4.4 -26.3,-1.8 -43.7,-39.3 -8.5,-18.4 14.7,-37.4 34.9,-38.4 20.2,-1 37.4,14.6 38.4,34.9 z"
                   id="path768"
                   inkscape:connector-curvature="0"
                   style="fill:#fae0b2" /><path
                   d="m 5426.7,1258.8 c 0,0 -1,-0.8 -1.5,-2.4 -0.6,-1.7 -3,-6.7 -3,-6.7 0,0 23.3,-2.7 28.7,-18.3 -0.1,0 4.1,19.2 -24.2,27.4 z"
                   id="path770"
                   inkscape:connector-curvature="0"
                   style="fill:#fe875e" /></g></g><path
               d="m 5490.5,1263.7 c 49.1,-0.6 33.7,116.5 -2.4,132 -44.5,19.2 -71.4,12.7 -71.4,12.7 l -0.3,-26.8 c 0.3,-0.1 52.8,-8.4 54,-25 2.8,-36.4 -24.2,-89.8 20.1,-92.9 z"
               id="path776"
               inkscape:connector-curvature="0"
               style="fill:#f47458" /><g
               id="g788"><path
                 d="m 5362.8,1419.4 h 65.1 c -1.4,0 -2.6,0.5 -3.5,1.2 -0.9,0.8 -1.5,1.8 -1.5,2.9 0,2.3 2.2,4.2 5,4.2 l -133.9,0.1 c -2.7,0 -5,-1.9 -5,-4.2 0,-1.2 0.6,-2.2 1.5,-2.9 0.9,-0.8 2.1,-1.2 3.5,-1.2 z"
                 id="path778"
                 inkscape:connector-curvature="0"
                 style="fill:#d1d1d1" /><path
                 d="m 5500.9,1419.3 c 2.3,0 4.2,1.9 4.2,4.2 0,1.2 -0.5,2.2 -1.2,3 -0.8,0.8 -1.8,1.2 -3,1.2 h -73.8 c -2.3,0 -4.2,-1.9 -4.2,-4.2 0,-1.2 0.5,-2.2 1.2,-2.9 0.8,-0.8 1.8,-1.2 3,-1.2 h 72.3 z"
                 id="path780"
                 inkscape:connector-curvature="0"
                 style="fill:#9e9e9e" /><path
                 d="m 5431.5,1417.2 c -1.1,1.4 -2.8,2.2 -4.6,2.2 h -5.3 c 1.8,0 3.4,-0.8 4.6,-2.2 1.1,-1.4 1.6,-3.2 1.2,-4.9 l -17.5,-83.6 c -0.6,-2.7 -3,-4.7 -5.8,-4.7 h 5.3 c 2.8,0 5.2,2 5.8,4.7 l 17.5,83.6 c 0.4,1.7 -0.1,3.5 -1.2,4.9 z"
                 id="path782"
                 inkscape:connector-curvature="0"
                 style="fill:#d1d1d1" /><path
                 d="m 5426.2,1417.2 c -1.1,1.4 -2.8,2.2 -4.6,2.2 l -127.1,0.1 c -2.8,0 -5.2,-2 -5.8,-4.7 l -17.5,-83.6 c -0.4,-1.8 0.1,-3.5 1.2,-4.9 1.1,-1.4 2.8,-2.2 4.6,-2.2 l 127,-0.1 c 2.8,0 5.2,2 5.8,4.7 l 17.5,83.6 c 0.5,1.7 0.1,3.5 -1.1,4.9 z"
                 id="path784"
                 inkscape:connector-curvature="0"
                 style="fill:#f4f4f4" /><circle
                 cx="5349.2998"
                 cy="1371.7"
                 r="6.9000001"
                 id="circle786"
                 style="fill:#ffffff" /></g><path
               d="m 5459.4,1197.2 c 0,0 -45.7,15.2 -70.2,-9.3 0,0 15.6,17.7 26.4,15.8 0,0 -15.3,4.7 -26.4,-12.7 0,0 -3.1,16 -11,19.3 0,0 -16.8,-63.0722 29.5167,-58.5444 53.6055,-1.3778 55.0611,12.5388 51.6833,45.4444 z"
               id="path790"
               style="fill:#000000"
               inkscape:connector-curvature="0"
               sodipodi:nodetypes="ccccccc" /><g
               id="g796"><path
                 d="m 5192.5,1570.4 c 0,0 -11.3,12.2 -15.7,9.7 l 46.2,30.4 9.8,-13.6 z"
                 id="path792"
                 inkscape:connector-curvature="0"
                 style="fill:#fae0b2" /><path
                 d="m 5160.4,1574.4 13,4.5 c 2.7,0.9 5.7,0.8 8.3,-0.4 l 6.2,-3.7 12.9,20.8 27.7,7.2 -2.7,3.8 -14.6,-4.1 12,7.9 c 2,1.3 2.6,4 1.2,6 l -3.6,5.5 c -1.4,2.1 -4.3,2.7 -6.4,1.3 l -13.8,-9.1 v -7.3 l -9.9,0.8 -43.4,-28.5 c -0.9,-0.6 -0.9,-1.8 -0.1,-2.4 v 0 c 3.6,-2.9 8.7,-3.8 13.2,-2.3 z"
                 id="path794"
                 inkscape:connector-curvature="0"
                 style="fill:#11442f" /></g><g
               id="g802"><path
                 d="m 5284.7,1645.8 c 0,0 -2.7,16.4 -7.8,16.8 h 55.2 l 0.7,-16.8 z"
                 id="path798"
                 inkscape:connector-curvature="0"
                 style="fill:#fae0b2" /><path
                 d="m 5260.1,1666.8 13.3,-3.4 c 2.8,-0.7 5.2,-2.5 6.7,-4.9 l 3.1,-6.5 22.2,10.3 27.1,-9.2 -0.2,4.7 -14.5,4.6 h 14.4 c 2.4,0 4.4,2 4.4,4.4 v 6.6 c 0,2.6 -2.1,4.6 -4.6,4.6 h -16.5 l -4,-6.1 -7.8,6.1 h -51.9 c -1,0 -1.7,-1 -1.4,-2 v 0 c 1.3,-4.5 5,-8 9.7,-9.2 z"
                 id="path800"
                 inkscape:connector-curvature="0"
                 style="fill:#11442f" /></g><path
               d="m 5307.7,1519.2 -26.9,126.7 h 54.6 l 44.2,-133.8 c 0,0 -15.9,-7.2 -38.2,-16.7 -22.3,-9.6 -28,9.7 -33.7,23.8 z"
               id="path804"
               inkscape:connector-curvature="0"
               style="fill:#11442f" /><path
               d="m 5519.2,1485.2 v 0 c -6.5,37.7 -25.3,46.9 -75,41.1 -62.3,-7.2 -96.9,-28.9 -96.9,-28.9 l -108.2,99.9 -46.3,-32.8 c 0,0 28,-35.6 64.5,-79.5 38.7,-46.5 47,-72.5 119.9,-55 45,10.8 79.7,11.4 112.3,18.8 v 0 c 18.8,4.3 30.9,7.3 30.9,7.3 0.8,9.7 0.4,19.6 -1.2,29.1 z"
               id="path806"
               inkscape:connector-curvature="0"
               style="fill:#184655" /><path
               d="m 5519.2,1485.2 v 0 c -38.6,2.5 -29.8,-36.3 -29.8,-36.3 v 0 c 18.8,4.3 30.9,7.3 30.9,7.3 0.9,9.6 0.5,19.5 -1.1,29 z"
               id="path808"
               inkscape:connector-curvature="0"
               style="fill:#11442f" /><path
               d="m 5196.3,1559.5 47.9,34.5 c 2.3,1.6 2.8,4.8 1.2,7.1 v 0 c -1.6,2.3 -4.8,2.8 -7.1,1.2 l -47.9,-34.5 c -2.3,-1.6 -2.8,-4.8 -1.2,-7.1 v 0 c 1.7,-2.3 4.8,-2.8 7.1,-1.2 z"
               id="path810"
               inkscape:connector-curvature="0"
               style="fill:#11442f" /><path
               d="m 5279.5,1635.7 h 59.1 c 2.8,0 5.1,2.3 5.1,5.1 v 0 c 0,2.8 -2.3,5.1 -5.1,5.1 h -59.1 c -2.8,0 -5.1,-2.3 -5.1,-5.1 v 0 c 0,-2.8 2.3,-5.1 5.1,-5.1 z"
               id="path812"
               inkscape:connector-curvature="0"
               style="fill:#11442f" /></g><g
             id="g834"><g
               id="g824"><path
                 d="m 6625.3,1054.7 14.2,1.3 c -35.4,2.6 -61.9,33.3 -59.4,68.7 l 1.4,19.6 c 2.2,29.5 24,52.9 51.7,58.3 l -228.5,-18 c -38.1,-3.6 -65.9,-37.6 -62,-75.7 l 1.1,-10.5 c 3.8,-37.5 37,-65 74.6,-61.7 v 0 z"
                 id="path816"
                 inkscape:connector-curvature="0"
                 style="fill:#355389" /><polygon
                 points="6418.4,1036.6 6416,1036.4 7175.3,1043 6639.5,1055.9 6625.3,1054.7 6418.5,1036.6 "
                 id="polygon818"
                 style="fill:#355389" /><path
                 d="m 7160,1064.6 -519.3,14.4 c -11.7,1 -22.3,6.8 -29.5,16.3 -6.2,8.3 -8.7,18.8 -8,29.1 l 1.4,18.1 c 1.5,21.1 19.3,37.9 40.4,38.2 1.2,0 2.4,-0.1 3.6,-0.1 h 0.6 l 511.7,-12.4 12.7,-0.3 c 6,-0.1 10.9,4.8 10.8,10.8 v 1.9 c -0.1,5.7 -4.6,10.3 -10.3,10.4 l -523.8,12.7 c -5.8,0.4 -11.5,0.1 -17,-1 -27.7,-5.4 -49.6,-28.8 -51.7,-58.3 l -1.4,-19.6 c -2.6,-35.4 24,-66.1 59.4,-68.7 l 535.9,-13 c 6,-0.1 10.9,4.7 10.8,10.8 -0.1,5.7 -4.6,10.3 -10.2,10.4 z"
                 id="path820"
                 inkscape:connector-curvature="0"
                 style="fill:#86b1f2" /><path
                 d="m 7160.8,1168.1 -511.7,12.4 h -0.6 c -1.2,0.1 -2.4,0.1 -3.6,0.1 -21.1,-0.3 -38.8,-17.1 -40.4,-38.2 l -1.4,-18.1 c -0.8,-10.4 1.8,-20.8 8,-29.1 7.2,-9.5 17.8,-15.4 29.5,-16.3 l 519.3,-14.4 c -0.2,0.9 -6.7,31.8 -7,51.7 -0.2,19.8 7.9,51.9 7.9,51.9 z"
                 id="path822"
                 inkscape:connector-curvature="0"
                 style="fill:#fae0b2" /></g><path
               d="m 6648.2,1108.9 c 15,-2.5 30,-4.1 45,-5.4 15,-1.4 30.1,-2.2 45.1,-2.9 15.1,-0.5 30.1,-1 45.2,-0.8 15.1,0.1 30.2,0.4 45.3,1.7 -15,2.5 -30,4.2 -45,5.4 -15,1.3 -30.1,2.2 -45.1,2.9 -15.1,0.5 -30.1,0.9 -45.2,0.8 -15.1,0 -30.2,-0.4 -45.3,-1.7 z"
               id="path826"
               inkscape:connector-curvature="0"
               style="fill:#e5bd83" /><path
               d="m 6772.1,1150.9 c 15,-2.5 30,-4.1 45,-5.4 15,-1.4 30.1,-2.2 45.1,-2.9 15.1,-0.5 30.1,-1 45.2,-0.8 15.1,0.1 30.2,0.4 45.3,1.7 -15,2.5 -30,4.2 -45,5.4 -15,1.3 -30.1,2.2 -45.1,2.9 -15.1,0.5 -30.1,0.9 -45.2,0.8 -15,-0.1 -30.1,-0.4 -45.3,-1.7 z"
               id="path828"
               inkscape:connector-curvature="0"
               style="fill:#e5bd83" /><path
               d="m 6792.7,1229 c 20.8,-27.9 22,-96.8 2.1,-125.3 -38.4,-0.6 -72.5,3.6 -110.9,3 20,28.5 14.4,92.8 -6.3,120.7 24.2,-7.5 47.9,-17.5 70,-29 16.1,12 30.9,22.6 45.1,30.6 z"
               id="path830"
               inkscape:connector-curvature="0"
               style="fill:#50bfa5" /><path
               d="m 6904.8,1123.7 c 20.6,-2.5 41.3,-4.2 61.9,-5.5 20.7,-1.4 41.3,-2.2 62,-2.9 20.7,-0.5 41.4,-1 62.1,-0.9 20.7,0 41.4,0.4 62.2,1.7 -20.6,2.5 -41.3,4.2 -61.9,5.5 -20.7,1.4 -41.3,2.2 -62,2.9 -20.7,0.5 -41.4,1 -62.1,0.9 -20.8,0 -41.5,-0.4 -62.2,-1.7 z"
               id="path832"
               inkscape:connector-curvature="0"
               style="fill:#e5bd83" /></g><g
             id="g1236"><g
               id="g846"><rect
                 x="6508.7998"
                 y="1754.7"
                 width="316.60001"
                 height="37.5"
                 id="rect836"
                 style="fill:#fec65e" /><rect
                 x="6672.5"
                 y="1754.7"
                 width="25.299999"
                 height="37.5"
                 id="rect838"
                 style="fill:#f7f07f" /><rect
                 x="6587.1001"
                 y="1754.7"
                 width="19.200001"
                 height="37.5"
                 id="rect840"
                 style="fill:#f7f07f" /><rect
                 x="6769.7998"
                 y="1754.7"
                 width="55.5"
                 height="37.5"
                 id="rect842"
                 style="fill:#ff9b48" /><rect
                 x="6508.7998"
                 y="1754.7"
                 width="316.60001"
                 height="33.599998"
                 id="rect844"
                 style="fill:#f7f07f" /></g><g
               id="g858"><rect
                 x="6535.7998"
                 y="1717.1"
                 width="316.60001"
                 height="37.5"
                 id="rect848"
                 style="fill:#fec65e" /><rect
                 x="6699.5"
                 y="1717.1"
                 width="25.299999"
                 height="37.5"
                 id="rect850"
                 style="fill:#f7f07f" /><rect
                 x="6614.1001"
                 y="1717.1"
                 width="19.200001"
                 height="37.5"
                 id="rect852"
                 style="fill:#f7f07f" /><rect
                 x="6796.7998"
                 y="1717.1"
                 width="55.5"
                 height="37.5"
                 id="rect854"
                 style="fill:#ff9b48" /><rect
                 x="6535.7998"
                 y="1717.1"
                 width="316.60001"
                 height="33.599998"
                 id="rect856"
                 style="fill:#f7f07f" /></g><g
               id="g870"><rect
                 x="6548.3999"
                 y="1641.7"
                 width="316.60001"
                 height="37.5"
                 id="rect860"
                 style="fill:#fec65e" /><rect
                 x="6712.1001"
                 y="1641.7"
                 width="25.299999"
                 height="37.5"
                 id="rect862"
                 style="fill:#f7f07f" /><rect
                 x="6626.7002"
                 y="1641.7"
                 width="19.200001"
                 height="37.5"
                 id="rect864"
                 style="fill:#f7f07f" /><rect
                 x="6809.3999"
                 y="1641.7"
                 width="55.5"
                 height="37.5"
                 id="rect866"
                 style="fill:#ff9b48" /><rect
                 x="6548.3999"
                 y="1641.7"
                 width="316.60001"
                 height="33.599998"
                 id="rect868"
                 style="fill:#f7f07f" /></g><g
               id="g882"><rect
                 x="6515.1001"
                 y="1679.6"
                 width="316.60001"
                 height="37.5"
                 id="rect872"
                 style="fill:#fec65e" /><rect
                 x="6678.7998"
                 y="1679.6"
                 width="25.299999"
                 height="37.5"
                 id="rect874"
                 style="fill:#f7f07f" /><rect
                 x="6593.3999"
                 y="1679.6"
                 width="19.200001"
                 height="37.5"
                 id="rect876"
                 style="fill:#f7f07f" /><rect
                 x="6776.1001"
                 y="1679.6"
                 width="55.5"
                 height="37.5"
                 id="rect878"
                 style="fill:#ff9b48" /><rect
                 x="6515.1001"
                 y="1679.6"
                 width="316.60001"
                 height="33.599998"
                 id="rect880"
                 style="fill:#f7f07f" /></g><g
               id="g894"><rect
                 x="6525.6001"
                 y="1568.2"
                 width="316.60001"
                 height="37.5"
                 id="rect884"
                 style="fill:#fec65e" /><rect
                 x="6689.2998"
                 y="1568.2"
                 width="25.299999"
                 height="37.5"
                 id="rect886"
                 style="fill:#f7f07f" /><rect
                 x="6603.8999"
                 y="1568.2"
                 width="19.200001"
                 height="37.5"
                 id="rect888"
                 style="fill:#f7f07f" /><rect
                 x="6786.6001"
                 y="1568.2"
                 width="55.5"
                 height="37.5"
                 id="rect890"
                 style="fill:#ff9b48" /><rect
                 x="6525.6001"
                 y="1568.2"
                 width="316.60001"
                 height="33.599998"
                 id="rect892"
                 style="fill:#f7f07f" /></g><g
               id="g906"><rect
                 x="6497.2998"
                 y="1604.5"
                 width="316.60001"
                 height="37.5"
                 id="rect896"
                 style="fill:#fec65e" /><rect
                 x="6661"
                 y="1604.5"
                 width="25.299999"
                 height="37.5"
                 id="rect898"
                 style="fill:#f7f07f" /><rect
                 x="6575.6001"
                 y="1604.5"
                 width="19.200001"
                 height="37.5"
                 id="rect900"
                 style="fill:#f7f07f" /><rect
                 x="6758.2998"
                 y="1604.5"
                 width="55.5"
                 height="37.5"
                 id="rect902"
                 style="fill:#ff9b48" /><rect
                 x="6497.2998"
                 y="1604.5"
                 width="316.60001"
                 height="33.599998"
                 id="rect904"
                 style="fill:#f7f07f" /></g><g
               id="g918"><rect
                 x="6497.2998"
                 y="1530.6"
                 width="316.60001"
                 height="37.5"
                 id="rect908"
                 style="fill:#fec65e" /><rect
                 x="6661"
                 y="1530.6"
                 width="25.299999"
                 height="37.5"
                 id="rect910"
                 style="fill:#f7f07f" /><rect
                 x="6575.6001"
                 y="1530.6"
                 width="19.200001"
                 height="37.5"
                 id="rect912"
                 style="fill:#f7f07f" /><rect
                 x="6758.2998"
                 y="1530.6"
                 width="55.5"
                 height="37.5"
                 id="rect914"
                 style="fill:#ff9b48" /><rect
                 x="6497.2998"
                 y="1530.6"
                 width="316.60001"
                 height="33.599998"
                 id="rect916"
                 style="fill:#f7f07f" /></g><g
               id="g930"><rect
                 x="6545.7998"
                 y="1494.7"
                 width="316.60001"
                 height="37.5"
                 id="rect920"
                 style="fill:#fec65e" /><rect
                 x="6709.5"
                 y="1494.7"
                 width="25.299999"
                 height="37.5"
                 id="rect922"
                 style="fill:#f7f07f" /><rect
                 x="6624.1001"
                 y="1494.7"
                 width="19.200001"
                 height="37.5"
                 id="rect924"
                 style="fill:#f7f07f" /><rect
                 x="6806.7998"
                 y="1494.7"
                 width="55.5"
                 height="37.5"
                 id="rect926"
                 style="fill:#ff9b48" /><rect
                 x="6545.7998"
                 y="1494.7"
                 width="316.60001"
                 height="33.599998"
                 id="rect928"
                 style="fill:#f7f07f" /></g><g
               id="g942"><rect
                 x="6515.1001"
                 y="1457.1"
                 width="316.60001"
                 height="37.5"
                 id="rect932"
                 style="fill:#fec65e" /><rect
                 x="6678.7998"
                 y="1457.1"
                 width="25.299999"
                 height="37.5"
                 id="rect934"
                 style="fill:#f7f07f" /><rect
                 x="6593.3999"
                 y="1457.1"
                 width="19.200001"
                 height="37.5"
                 id="rect936"
                 style="fill:#f7f07f" /><rect
                 x="6776.1001"
                 y="1457.1"
                 width="55.5"
                 height="37.5"
                 id="rect938"
                 style="fill:#ff9b48" /><rect
                 x="6515.1001"
                 y="1457.1"
                 width="316.60001"
                 height="33.599998"
                 id="rect940"
                 style="fill:#f7f07f" /></g><g
               id="g954"><rect
                 x="6891"
                 y="1717.2"
                 width="316.60001"
                 height="37.5"
                 id="rect944"
                 style="fill:#fec65e" /><rect
                 x="7054.7002"
                 y="1717.2"
                 width="25.299999"
                 height="37.5"
                 id="rect946"
                 style="fill:#f7f07f" /><rect
                 x="6969.2998"
                 y="1717.2"
                 width="19.200001"
                 height="37.5"
                 id="rect948"
                 style="fill:#f7f07f" /><rect
                 x="7152"
                 y="1717.2"
                 width="55.5"
                 height="37.5"
                 id="rect950"
                 style="fill:#ff9b48" /><rect
                 x="6891"
                 y="1717.2"
                 width="316.60001"
                 height="33.599998"
                 id="rect952"
                 style="fill:#f7f07f" /></g><g
               id="g966"><rect
                 x="6862.7002"
                 y="1753.5"
                 width="316.60001"
                 height="37.5"
                 id="rect956"
                 style="fill:#fec65e" /><rect
                 x="7026.3999"
                 y="1753.5"
                 width="25.299999"
                 height="37.5"
                 id="rect958"
                 style="fill:#f7f07f" /><rect
                 x="6941"
                 y="1753.5"
                 width="19.200001"
                 height="37.5"
                 id="rect960"
                 style="fill:#f7f07f" /><rect
                 x="7123.7002"
                 y="1753.5"
                 width="55.5"
                 height="37.5"
                 id="rect962"
                 style="fill:#ff9b48" /><rect
                 x="6862.7002"
                 y="1753.5"
                 width="316.60001"
                 height="33.599998"
                 id="rect964"
                 style="fill:#f7f07f" /></g><g
               id="g978"><rect
                 x="6862.7002"
                 y="1679.7"
                 width="316.60001"
                 height="37.5"
                 id="rect968"
                 style="fill:#fec65e" /><rect
                 x="7026.3999"
                 y="1679.7"
                 width="25.299999"
                 height="37.5"
                 id="rect970"
                 style="fill:#f7f07f" /><rect
                 x="6941"
                 y="1679.7"
                 width="19.200001"
                 height="37.5"
                 id="rect972"
                 style="fill:#f7f07f" /><rect
                 x="7123.7002"
                 y="1679.7"
                 width="55.5"
                 height="37.5"
                 id="rect974"
                 style="fill:#ff9b48" /><rect
                 x="6862.7002"
                 y="1679.7"
                 width="316.60001"
                 height="33.599998"
                 id="rect976"
                 style="fill:#f7f07f" /></g><g
               id="g990"><rect
                 x="6911.2998"
                 y="1643.7"
                 width="316.60001"
                 height="37.5"
                 id="rect980"
                 style="fill:#fec65e" /><rect
                 x="7075"
                 y="1643.7"
                 width="25.299999"
                 height="37.5"
                 id="rect982"
                 style="fill:#f7f07f" /><rect
                 x="6989.6001"
                 y="1643.7"
                 width="19.200001"
                 height="37.5"
                 id="rect984"
                 style="fill:#f7f07f" /><rect
                 x="7172.2998"
                 y="1643.7"
                 width="55.5"
                 height="37.5"
                 id="rect986"
                 style="fill:#ff9b48" /><rect
                 x="6911.2998"
                 y="1643.7"
                 width="316.60001"
                 height="33.599998"
                 id="rect988"
                 style="fill:#f7f07f" /></g><g
               id="g1002"><rect
                 x="6868.1001"
                 y="1568.6"
                 width="316.60001"
                 height="37.5"
                 id="rect992"
                 style="fill:#fec65e" /><rect
                 x="7031.7998"
                 y="1568.6"
                 width="25.299999"
                 height="37.5"
                 id="rect994"
                 style="fill:#f7f07f" /><rect
                 x="6946.3999"
                 y="1568.6"
                 width="19.200001"
                 height="37.5"
                 id="rect996"
                 style="fill:#f7f07f" /><rect
                 x="7129.2002"
                 y="1568.6"
                 width="55.5"
                 height="37.5"
                 id="rect998"
                 style="fill:#ff9b48" /><rect
                 x="6868.1001"
                 y="1568.6"
                 width="316.60001"
                 height="33.599998"
                 id="rect1000"
                 style="fill:#f7f07f" /></g><g
               id="g1014"><rect
                 x="6880.5"
                 y="1606.2"
                 width="316.60001"
                 height="37.5"
                 id="rect1004"
                 style="fill:#fec65e" /><rect
                 x="7044.2002"
                 y="1606.2"
                 width="25.299999"
                 height="37.5"
                 id="rect1006"
                 style="fill:#f7f07f" /><rect
                 x="6958.7998"
                 y="1606.2"
                 width="19.200001"
                 height="37.5"
                 id="rect1008"
                 style="fill:#f7f07f" /><rect
                 x="7141.5"
                 y="1606.2"
                 width="55.5"
                 height="37.5"
                 id="rect1010"
                 style="fill:#ff9b48" /><rect
                 x="6880.5"
                 y="1606.2"
                 width="316.60001"
                 height="33.599998"
                 id="rect1012"
                 style="fill:#f7f07f" /></g><g
               id="g1026"><rect
                 x="6903"
                 y="1531.1"
                 width="316.60001"
                 height="37.5"
                 id="rect1016"
                 style="fill:#fec65e" /><rect
                 x="7066.7998"
                 y="1531.1"
                 width="25.299999"
                 height="37.5"
                 id="rect1018"
                 style="fill:#f7f07f" /><rect
                 x="6981.2998"
                 y="1531.1"
                 width="19.200001"
                 height="37.5"
                 id="rect1020"
                 style="fill:#f7f07f" /><rect
                 x="7164.1001"
                 y="1531.1"
                 width="55.5"
                 height="37.5"
                 id="rect1022"
                 style="fill:#ff9b48" /><rect
                 x="6903"
                 y="1531.1"
                 width="316.60001"
                 height="33.599998"
                 id="rect1024"
                 style="fill:#f7f07f" /></g><g
               id="g1038"><rect
                 x="6893.5"
                 y="1493.3"
                 width="316.60001"
                 height="37.5"
                 id="rect1028"
                 style="fill:#fec65e" /><rect
                 x="7057.2002"
                 y="1493.3"
                 width="25.299999"
                 height="37.5"
                 id="rect1030"
                 style="fill:#f7f07f" /><rect
                 x="6971.7998"
                 y="1493.3"
                 width="19.200001"
                 height="37.5"
                 id="rect1032"
                 style="fill:#f7f07f" /><rect
                 x="7154.5"
                 y="1493.3"
                 width="55.5"
                 height="37.5"
                 id="rect1034"
                 style="fill:#ff9b48" /><rect
                 x="6893.5"
                 y="1493.3"
                 width="316.60001"
                 height="33.599998"
                 id="rect1036"
                 style="fill:#f7f07f" /></g><g
               id="g1050"><rect
                 x="6872.7002"
                 y="1457.8"
                 width="316.60001"
                 height="37.5"
                 id="rect1040"
                 style="fill:#fec65e" /><rect
                 x="7036.3999"
                 y="1457.8"
                 width="25.299999"
                 height="37.5"
                 id="rect1042"
                 style="fill:#f7f07f" /><rect
                 x="6951"
                 y="1457.8"
                 width="19.200001"
                 height="37.5"
                 id="rect1044"
                 style="fill:#f7f07f" /><rect
                 x="7133.7002"
                 y="1457.8"
                 width="55.5"
                 height="37.5"
                 id="rect1046"
                 style="fill:#ff9b48" /><rect
                 x="6872.7002"
                 y="1457.8"
                 width="316.60001"
                 height="33.599998"
                 id="rect1048"
                 style="fill:#f7f07f" /></g><g
               id="g1062"><rect
                 x="6896.3999"
                 y="1420.1"
                 width="316.60001"
                 height="37.5"
                 id="rect1052"
                 style="fill:#fec65e" /><rect
                 x="7060.1001"
                 y="1420.1"
                 width="25.299999"
                 height="37.5"
                 id="rect1054"
                 style="fill:#f7f07f" /><rect
                 x="6974.7002"
                 y="1420.1"
                 width="19.200001"
                 height="37.5"
                 id="rect1056"
                 style="fill:#f7f07f" /><rect
                 x="7157.3999"
                 y="1420.1"
                 width="55.5"
                 height="37.5"
                 id="rect1058"
                 style="fill:#ff9b48" /><rect
                 x="6896.3999"
                 y="1420.1"
                 width="316.60001"
                 height="33.599998"
                 id="rect1060"
                 style="fill:#f7f07f" /></g><g
               id="g1074"><rect
                 x="5355.3999"
                 y="1755.5"
                 width="316.60001"
                 height="37.5"
                 id="rect1064"
                 style="fill:#fec65e" /><rect
                 x="5519.1001"
                 y="1755.5"
                 width="25.299999"
                 height="37.5"
                 id="rect1066"
                 style="fill:#f7f07f" /><rect
                 x="5433.7002"
                 y="1755.5"
                 width="19.200001"
                 height="37.5"
                 id="rect1068"
                 style="fill:#f7f07f" /><rect
                 x="5616.3999"
                 y="1755.5"
                 width="55.5"
                 height="37.5"
                 id="rect1070"
                 style="fill:#ff9b48" /><rect
                 x="5355.3999"
                 y="1755.5"
                 width="316.60001"
                 height="33.599998"
                 id="rect1072"
                 style="fill:#f7f07f" /></g><g
               id="g1086"><rect
                 x="5312.2002"
                 y="1680.4"
                 width="316.60001"
                 height="37.5"
                 id="rect1076"
                 style="fill:#fec65e" /><rect
                 x="5475.8999"
                 y="1680.4"
                 width="25.299999"
                 height="37.5"
                 id="rect1078"
                 style="fill:#f7f07f" /><rect
                 x="5390.5"
                 y="1680.4"
                 width="19.200001"
                 height="37.5"
                 id="rect1080"
                 style="fill:#f7f07f" /><rect
                 x="5573.2002"
                 y="1680.4"
                 width="55.5"
                 height="37.5"
                 id="rect1082"
                 style="fill:#ff9b48" /><rect
                 x="5312.2002"
                 y="1680.4"
                 width="316.60001"
                 height="33.599998"
                 id="rect1084"
                 style="fill:#f7f07f" /></g><g
               id="g1098"><rect
                 x="5324.6001"
                 y="1718"
                 width="316.60001"
                 height="37.5"
                 id="rect1088"
                 style="fill:#fec65e" /><rect
                 x="5488.2998"
                 y="1718"
                 width="25.299999"
                 height="37.5"
                 id="rect1090"
                 style="fill:#f7f07f" /><rect
                 x="5402.8999"
                 y="1718"
                 width="19.200001"
                 height="37.5"
                 id="rect1092"
                 style="fill:#f7f07f" /><rect
                 x="5585.6001"
                 y="1718"
                 width="55.5"
                 height="37.5"
                 id="rect1094"
                 style="fill:#ff9b48" /><rect
                 x="5324.6001"
                 y="1718"
                 width="316.60001"
                 height="33.599998"
                 id="rect1096"
                 style="fill:#f7f07f" /></g><g
               id="g1110"><rect
                 x="5347.1001"
                 y="1642.9"
                 width="316.60001"
                 height="37.5"
                 id="rect1100"
                 style="fill:#fec65e" /><rect
                 x="5510.7998"
                 y="1642.9"
                 width="25.299999"
                 height="37.5"
                 id="rect1102"
                 style="fill:#f7f07f" /><rect
                 x="5425.3999"
                 y="1642.9"
                 width="19.200001"
                 height="37.5"
                 id="rect1104"
                 style="fill:#f7f07f" /><rect
                 x="5608.1001"
                 y="1642.9"
                 width="55.5"
                 height="37.5"
                 id="rect1106"
                 style="fill:#ff9b48" /><rect
                 x="5347.1001"
                 y="1642.9"
                 width="316.60001"
                 height="33.599998"
                 id="rect1108"
                 style="fill:#f7f07f" /></g><g
               id="g1122"><rect
                 x="5337.6001"
                 y="1605.1"
                 width="316.60001"
                 height="37.5"
                 id="rect1112"
                 style="fill:#fec65e" /><rect
                 x="5501.2998"
                 y="1605.1"
                 width="25.299999"
                 height="37.5"
                 id="rect1114"
                 style="fill:#f7f07f" /><rect
                 x="5415.8999"
                 y="1605.1"
                 width="19.200001"
                 height="37.5"
                 id="rect1116"
                 style="fill:#f7f07f" /><rect
                 x="5598.6001"
                 y="1605.1"
                 width="55.5"
                 height="37.5"
                 id="rect1118"
                 style="fill:#ff9b48" /><rect
                 x="5337.6001"
                 y="1605.1"
                 width="316.60001"
                 height="33.599998"
                 id="rect1120"
                 style="fill:#f7f07f" /></g><g
               id="g1134"><rect
                 x="5316.7998"
                 y="1569.6"
                 width="316.60001"
                 height="37.5"
                 id="rect1124"
                 style="fill:#fec65e" /><rect
                 x="5480.5"
                 y="1569.6"
                 width="25.299999"
                 height="37.5"
                 id="rect1126"
                 style="fill:#f7f07f" /><rect
                 x="5395.1001"
                 y="1569.6"
                 width="19.200001"
                 height="37.5"
                 id="rect1128"
                 style="fill:#f7f07f" /><rect
                 x="5577.7998"
                 y="1569.6"
                 width="55.5"
                 height="37.5"
                 id="rect1130"
                 style="fill:#ff9b48" /><rect
                 x="5316.7998"
                 y="1569.6"
                 width="316.60001"
                 height="33.599998"
                 id="rect1132"
                 style="fill:#f7f07f" /></g><g
               id="g1146"><rect
                 x="5340.5"
                 y="1531.9"
                 width="316.60001"
                 height="37.5"
                 id="rect1136"
                 style="fill:#fec65e" /><rect
                 x="5504.2002"
                 y="1531.9"
                 width="25.299999"
                 height="37.5"
                 id="rect1138"
                 style="fill:#f7f07f" /><rect
                 x="5418.7998"
                 y="1531.9"
                 width="19.200001"
                 height="37.5"
                 id="rect1140"
                 style="fill:#f7f07f" /><rect
                 x="5601.5"
                 y="1531.9"
                 width="55.5"
                 height="37.5"
                 id="rect1142"
                 style="fill:#ff9b48" /><rect
                 x="5340.5"
                 y="1531.9"
                 width="316.60001"
                 height="33.599998"
                 id="rect1144"
                 style="fill:#f7f07f" /></g><g
               id="g1158"><rect
                 x="6435.2002"
                 y="1476.7"
                 transform="matrix(0.9776,0.2104,-0.2104,0.9776,488.5414,-1321.4468)"
                 width="37.5"
                 height="316.60001"
                 id="rect1148"
                 style="fill:#fec65e" /><rect
                 x="6437.5"
                 y="1633.9"
                 transform="matrix(0.2104,-0.9776,0.9776,0.2104,3477.2048,7610.6851)"
                 width="25.299999"
                 height="37.5"
                 id="rect1150"
                 style="fill:#f7f07f" /><rect
                 x="6459.2002"
                 y="1547.4"
                 transform="matrix(0.2104,-0.9776,0.9776,0.2104,3576.4695,7560.5771)"
                 width="19.200001"
                 height="37.5"
                 id="rect1152"
                 style="fill:#f7f07f" /><rect
                 x="6398.7002"
                 y="1743.8"
                 transform="matrix(0.2104,-0.9776,0.9776,0.2104,3351.0942,7674.3247)"
                 width="55.5"
                 height="37.5"
                 id="rect1154"
                 style="fill:#ff9b48" /><rect
                 x="6435.2002"
                 y="1476.3"
                 transform="matrix(0.9776,0.2104,-0.2104,0.9776,488.4099,-1321.049)"
                 width="33.599998"
                 height="316.60001"
                 id="rect1156"
                 style="fill:#f7f07f" /></g><g
               id="g1196"><circle
                 cx="5622.6001"
                 cy="1635"
                 r="155.8"
                 id="circle1160"
                 style="fill:#fec65e" /><path
                 d="m 5488.5,1635 c 0,29 9.2,55.8 24.8,77.8 2.2,3 4.5,6 6.9,8.8 4.9,5.8 10.3,11.1 16,16 2.7,2.2 5.4,4.4 8.3,6.4 5.6,4 11.6,7.7 17.8,10.8 2.9,1.5 5.8,2.8 8.8,4 12.1,5 25.1,8.3 38.7,9.6 3.6,0.4 7.2,0.5 10.8,0.6 0.6,0 1.2,0 1.8,0 74,0 134,-60 134,-134 0,-25.4 -7.1,-49.2 -19.3,-69.4 -1.9,-3.1 -3.9,-6.1 -6,-9 -7.8,-10.8 -17.2,-20.4 -27.9,-28.5 -2.6,-2 -5.2,-3.8 -8,-5.6 -5.8,-3.8 -11.9,-7.1 -18.3,-10 -3.2,-1.4 -6.4,-2.7 -9.7,-3.9 -7,-2.5 -14.4,-4.4 -21.9,-5.7 -3.7,-0.6 -7.4,-1.1 -11.1,-1.4 -3.9,-0.4 -7.8,-0.5 -11.8,-0.5 -73.9,0 -133.9,60 -133.9,134 z"
                 id="path1162"
                 inkscape:connector-curvature="0"
                 style="fill:#f7f07f" /><g
                 id="g1172"><g
                   id="g1166"><rect
                     x="5615.6001"
                     y="1525.9"
                     transform="matrix(-0.9998,0.0217825,-0.0217825,-0.9998,11278.15,3147.0544)"
                     width="12.7"
                     height="218.10001"
                     id="rect1164"
                     style="fill:#fec65e" /></g><g
                   id="g1170"><path
                     d="m 5622.8,1721.3 c 0.3,0 0.7,0 1,0 24.7,-0.5 37.7,-25.5 38.3,-26.6 l -11.3,-5.8 c -0.1,0.2 -10.3,19.3 -27.3,19.7 -8.3,0.2 -14.9,-2.6 -19.5,-8.3 -4.8,-5.8 -7.4,-14.3 -7.6,-24.7 -0.4,-18.1 6.9,-27.2 28,-34.7 22.7,-8.2 34,-23.9 33.5,-46.8 -0.3,-11.8 -3.6,-22.7 -9.4,-30.9 -6.9,-9.7 -16.9,-14.8 -28.4,-14.6 -23.4,0.5 -34.1,17.4 -34.5,18.1 l 10.8,6.7 c 0.3,-0.4 7.6,-11.7 24,-12 7.3,-0.1 13.3,3 17.7,9.2 4.3,6 6.8,14.7 7,23.8 0.4,17.3 -7.6,28.3 -25.1,34.6 -18.3,6.6 -37,17.4 -36.4,47 0.3,13.3 3.9,24.5 10.5,32.5 7.1,8.4 17,12.8 28.7,12.8 z"
                     id="path1168"
                     inkscape:connector-curvature="0"
                     style="fill:#fec65e" /></g></g><g
                 id="g1194"><defs
                   id="defs1175"><circle
                     id="SVGID_4_"
                     cx="5622.6001"
                     cy="1635"
                     r="155.8" /></defs><clipPath
                   id="SVGID_5_"><use
                     xlink:href="#SVGID_4_"
                     overflow="visible"
                     id="use1177"
                     style="overflow:visible"
                     x="0"
                     y="0"
                     width="100%"
                     height="100%" /></clipPath><g
                   clip-path="url(#SVGID_5_)"
                   id="g1192"><path
                     d="m 5703.4,1528.1 c 10.6,8 20,17.6 27.9,28.5 2.1,2.9 4.1,5.9 6,9 l 39.8,-69.4 -41.6,-23.9 z"
                     id="path1180"
                     inkscape:connector-curvature="0"
                     style="fill:#f7f07f" /><path
                     d="m 5533.9,1824 41.6,23.9 45.2,-78.9 c -3.6,0 -7.3,-0.2 -10.8,-0.6 -13.6,-1.3 -26.6,-4.6 -38.7,-9.6 z"
                     id="path1182"
                     inkscape:connector-curvature="0"
                     style="fill:#f7f07f" /><path
                     d="m 5562.4,1754.8 c 14.5,7.3 30.6,12.1 47.5,13.6 l 121.4,-211.8 c -9.7,-13.5 -21.9,-25 -35.8,-34.1 z"
                     id="path1184"
                     inkscape:connector-curvature="0"
                     style="fill:#ffffff" /><path
                     d="m 5645.5,1502.9 c 7.5,1.3 14.9,3.2 21.9,5.7 3.3,1.2 6.6,2.5 9.7,3.9 l 30.1,-52.5 -28,-16 z"
                     id="path1186"
                     inkscape:connector-curvature="0"
                     style="fill:#f7f07f" /><path
                     d="m 5477.8,1795.7 28,16 38.8,-67.7 c -2.8,-2 -5.6,-4.2 -8.3,-6.4 -5.8,-4.9 -11.2,-10.2 -16,-16 z"
                     id="path1188"
                     inkscape:connector-curvature="0"
                     style="fill:#f7f07f" /><path
                     d="m 5513.4,1712.8 c 6.6,9.2 14.3,17.6 22.9,24.8 l 131.1,-228.9 c -10.5,-3.7 -21.5,-6.2 -33,-7.2 z"
                     id="path1190"
                     inkscape:connector-curvature="0"
                     style="fill:#ffffff" /></g></g></g><g
               id="g1234"><circle
                 cx="7172.2998"
                 cy="1635"
                 r="155.8"
                 id="circle1198"
                 style="fill:#fec65e" /><path
                 d="m 7038.2,1635 c 0,29 9.2,55.8 24.8,77.8 2.2,3 4.5,6 6.9,8.8 4.9,5.8 10.3,11.1 16,16 2.7,2.2 5.4,4.4 8.3,6.4 5.6,4 11.6,7.7 17.8,10.8 2.9,1.5 5.8,2.8 8.8,4 12.1,5 25.1,8.3 38.7,9.6 3.6,0.4 7.2,0.5 10.8,0.6 0.6,0 1.2,0 1.8,0 74,0 134,-60 134,-134 0,-25.4 -7.1,-49.2 -19.3,-69.4 -1.9,-3.1 -3.9,-6.1 -6,-9 -7.8,-10.8 -17.2,-20.4 -27.9,-28.5 -2.6,-2 -5.2,-3.8 -8,-5.6 -5.8,-3.8 -11.9,-7.1 -18.3,-10 -3.2,-1.4 -6.4,-2.7 -9.7,-3.9 -7,-2.5 -14.4,-4.4 -21.9,-5.7 -3.7,-0.6 -7.4,-1.1 -11.1,-1.4 -3.9,-0.4 -7.8,-0.5 -11.8,-0.5 -73.8,0 -133.9,60 -133.9,134 z"
                 id="path1200"
                 inkscape:connector-curvature="0"
                 style="fill:#f7f07f" /><g
                 id="g1210"><g
                   id="g1204"><rect
                     x="7165.2998"
                     y="1525.9"
                     transform="matrix(-0.9998,0.0217825,-0.0217825,-0.9998,14377.248,3113.2974)"
                     width="12.7"
                     height="218.10001"
                     id="rect1202"
                     style="fill:#fec65e" /></g><g
                   id="g1208"><path
                     d="m 7172.5,1721.3 c 0.3,0 0.7,0 1,0 24.7,-0.5 37.7,-25.5 38.3,-26.6 l -11.3,-5.8 c -0.1,0.2 -10.3,19.3 -27.3,19.7 -8.3,0.2 -14.9,-2.6 -19.5,-8.3 -4.8,-5.8 -7.4,-14.3 -7.6,-24.7 -0.4,-18.1 6.9,-27.2 28,-34.7 22.7,-8.2 34,-23.9 33.5,-46.8 -0.3,-11.8 -3.6,-22.7 -9.4,-30.9 -6.9,-9.7 -16.9,-14.8 -28.4,-14.6 -23.4,0.5 -34.1,17.4 -34.5,18.1 l 10.8,6.7 c 0.3,-0.4 7.6,-11.7 24,-12 7.3,-0.1 13.3,3 17.7,9.2 4.3,6 6.8,14.7 7,23.8 0.4,17.3 -7.6,28.3 -25.1,34.6 -18.3,6.6 -37,17.4 -36.4,47 0.3,13.3 3.9,24.5 10.5,32.5 7.1,8.4 17,12.8 28.7,12.8 z"
                     id="path1206"
                     inkscape:connector-curvature="0"
                     style="fill:#fec65e" /></g></g><g
                 id="g1232"><defs
                   id="defs1213"><circle
                     id="SVGID_6_"
                     cx="7172.2998"
                     cy="1635"
                     r="155.8" /></defs><clipPath
                   id="SVGID_7_"><use
                     xlink:href="#SVGID_6_"
                     overflow="visible"
                     id="use1215"
                     style="overflow:visible"
                     x="0"
                     y="0"
                     width="100%"
                     height="100%" /></clipPath><g
                   clip-path="url(#SVGID_7_)"
                   id="g1230"><path
                     d="m 7253.1,1528.1 c 10.6,8 20,17.6 27.9,28.5 2.1,2.9 4.1,5.9 6,9 l 39.8,-69.4 -41.6,-23.9 z"
                     id="path1218"
                     inkscape:connector-curvature="0"
                     style="fill:#f7f07f" /><path
                     d="m 7083.6,1824 41.6,23.9 45.2,-78.9 c -3.6,0 -7.3,-0.2 -10.8,-0.6 -13.6,-1.3 -26.6,-4.6 -38.7,-9.6 z"
                     id="path1220"
                     inkscape:connector-curvature="0"
                     style="fill:#f7f07f" /><path
                     d="m 7112.1,1754.8 c 14.5,7.3 30.6,12.1 47.5,13.6 L 7281,1556.6 c -9.7,-13.5 -21.9,-25 -35.8,-34.1 z"
                     id="path1222"
                     inkscape:connector-curvature="0"
                     style="fill:#ffffff" /><path
                     d="m 7195.2,1502.9 c 7.5,1.3 14.9,3.2 21.9,5.7 3.3,1.2 6.6,2.5 9.7,3.9 l 30.1,-52.5 -28,-16 z"
                     id="path1224"
                     inkscape:connector-curvature="0"
                     style="fill:#f7f07f" /><path
                     d="m 7027.5,1795.7 28,16 38.8,-67.7 c -2.8,-2 -5.6,-4.2 -8.3,-6.4 -5.8,-4.9 -11.2,-10.2 -16,-16 z"
                     id="path1226"
                     inkscape:connector-curvature="0"
                     style="fill:#f7f07f" /><path
                     d="m 7063.1,1712.8 c 6.6,9.2 14.3,17.6 22.9,24.8 l 131.1,-228.9 c -10.5,-3.7 -21.5,-6.2 -33,-7.2 z"
                     id="path1228"
                     inkscape:connector-curvature="0"
                     style="fill:#ffffff" /></g></g></g></g><g
             id="g1300"><g
               id="g1244"><path
                 d="m 5773,1602.7 h -146.6 c 0,40.5 32.8,73.3 73.2,73.3 h 725.8 c -40.5,0 -73.3,-32.8 -73.3,-73.3 z"
                 id="path1238"
                 inkscape:connector-curvature="0"
                 style="fill:#f7cc7f" /><path
                 d="m 6498.8,793.4 v 49.8 0 h 146.6 v -49.8 c 0,-40.5 -32.8,-73.3 -73.3,-73.3 -0.1,0 -0.1,0 -0.2,0 0,0 0,0 -0.1,0 -2.7,0.2 -24.7,1.8 -43.9,14.8 -17.3,13 -28.6,33.5 -29.1,56.6 v 0 c 0,0.7 0,1.3 0,1.9 z"
                 id="path1240"
                 inkscape:connector-curvature="0"
                 style="fill:#f7cc7f" /><path
                 d="m 5773,793.4 v 809.3 h 579.2 c 0,40.5 32.9,73.3 73.3,73.3 40.5,0 73.3,-32.8 73.3,-73.3 V 843.2 793.4 c 0,-0.6 0,-1.3 0,-1.9 0.5,-29.1 14,-46.4 29.2,-56.6 12.2,-9.2 27.4,-14.7 43.9,-14.8 0,0 0,0 0.1,0 0.1,0 0.2,0 0.2,0 h -725.8 c -40.6,0 -73.4,32.8 -73.4,73.3 z"
                 id="path1242"
                 inkscape:connector-curvature="0"
                 style="fill:#fae0b2" /></g><g
               id="g1254"><g
                 id="g1248"><path
                   d="m 6206.7,1554.1 c -0.3,0 -0.6,0 -0.9,-0.1 -4,-0.5 -6.7,-3.2 -7,-7 -0.9,-11 23.3,-39.1 45.2,-56.1 0.8,-2.6 1.5,-5.1 2,-7.6 3.4,-16 -0.1,-26.2 -10.5,-30.3 -30,-11.8 -65.6,53.9 -76.8,80.3 l -8.5,-3.6 c 1.8,-4.2 44.3,-102.8 88.7,-85.3 14.2,5.6 20,19.1 16.6,38.3 4,-2.4 7.8,-4.2 11,-5.1 3.1,-0.9 5.6,-1 7.5,-0.7 3.6,-2.9 7.4,-4.7 11.1,-4.3 0.6,0.1 1.5,0.2 2.6,0.7 2.9,-2.3 6.2,-3.8 9.8,-3.7 5.9,0.2 10.5,2.1 13.6,5.7 4.5,5.2 3.9,11.8 3.8,12.5 l -9.2,-1 v 0 c 0,0 0.3,-3.3 -1.7,-5.4 -1.4,-1.5 -3.7,-2.3 -6.8,-2.4 -1.1,0 -2.5,0.6 -4,1.8 0.2,0.8 0.3,1.7 0.3,2.7 0.6,11 -7.9,33.7 -17.1,35.7 -2.4,0.5 -4.6,-0.3 -6.1,-2.1 -1.3,-1.7 -1.7,-4.1 -1.5,-6.8 -2.7,3.4 -5.2,6 -6.8,7.2 -4.3,3.4 -7.2,1.6 -8.3,0.7 -3.4,-3 -1.8,-8.3 0.5,-13.5 1.3,-3 4.6,-9.4 9,-15.7 -3.4,1.8 -7.4,4.4 -11.7,7.6 -9.1,26.2 -31.4,57.5 -44.8,57.5 z m 28.8,-43.5 c -1.6,1.5 -3.1,3 -4.7,4.6 -13.5,13.7 -20.6,24.4 -22.4,29.1 3.2,-1.6 9.7,-6.9 18,-18.8 3.3,-4.8 6.4,-9.8 9.1,-14.9 z m 38.7,-0.4 z"
                   id="path1246"
                   inkscape:connector-curvature="0"
                   style="fill:#355389" /></g><g
                 id="g1252"><path
                   d="m 6240.1,1545 -3.4,-8.6 c 4.8,-1.9 117.2,-46.2 151.4,-28.9 l -4.2,8.3 c -25.3,-12.9 -112.4,16.7 -143.8,29.2 z"
                   id="path1250"
                   inkscape:connector-curvature="0"
                   style="fill:#355389" /></g></g><g
               id="g1298"><g
                 id="g1260"><g
                   id="g1258"><rect
                     x="5883.7002"
                     y="985.5"
                     width="518.79999"
                     height="11.7"
                     id="rect1256"
                     style="fill:#355389" /></g></g><g
                 id="g1266"><g
                   id="g1264"><rect
                     x="5883.7002"
                     y="1047.2"
                     width="518.79999"
                     height="11.7"
                     id="rect1262"
                     style="fill:#355389" /></g></g><g
                 id="g1272"><g
                   id="g1270"><rect
                     x="5883.7002"
                     y="1108.9"
                     width="518.79999"
                     height="11.7"
                     id="rect1268"
                     style="fill:#355389" /></g></g><g
                 id="g1278"><g
                   id="g1276"><rect
                     x="5883.7002"
                     y="1170.5"
                     width="518.79999"
                     height="11.7"
                     id="rect1274"
                     style="fill:#355389" /></g></g><g
                 id="g1284"><g
                   id="g1282"><rect
                     x="5883.7002"
                     y="1232.2"
                     width="518.79999"
                     height="11.7"
                     id="rect1280"
                     style="fill:#355389" /></g></g><g
                 id="g1290"><g
                   id="g1288"><rect
                     x="5883.7002"
                     y="1293.8"
                     width="518.79999"
                     height="11.7"
                     id="rect1286"
                     style="fill:#355389" /></g></g><g
                 id="g1296"><g
                   id="g1294"><rect
                     x="5883.7002"
                     y="1355.5"
                     width="518.79999"
                     height="11.7"
                     id="rect1292"
                     style="fill:#355389" /></g></g></g></g><g
             id="g1318"><g
               id="g1308"><path
                 d="m 5738,757.7 37.3,86.8 c 0,0 77.9,-54.9 131.3,-77.8 60.3,-25.9 146.9,-41.6 146.9,-41.6 l -37.3,-86.8 -37.3,-86.8 c 0,0 -85.1,-11.1 -156.4,19.5 -66.1,28.4 -121.8,100 -121.8,100 z"
                 id="path1302"
                 inkscape:connector-curvature="0"
                 style="fill:#355389" /><path
                 d="m 5566.7,755.3 168.9,3.4 2.3,-1 -37.3,-86.8 c 0,0 55.7,-71.6 121.8,-100 71.3,-30.6 156.4,-19.5 156.4,-19.5 l 37.3,86.8 2.3,-1 113.9,-124.8 -335.4,-1 z"
                 id="path1304"
                 inkscape:connector-curvature="0"
                 style="fill:#13375b" /><path
                 d="m 5799.5,487.1 323.1,2.6 9.7,22.7 -322.5,-1 c -8.2,0 -16,3.3 -21.6,9.3 l -221.5,234.6 -9.7,-22.7 220.6,-236.1 c 5.7,-6.1 13.6,-9.5 21.9,-9.4 z"
                 id="path1306"
                 inkscape:connector-curvature="0"
                 style="fill:#355389" /></g><path
               d="m 6117.8,668.8 c 0,0 17.5,17 21,34.6 3.5,17.6 1.5,35.5 1.5,35.5 l -3.9,1.7 -3.7,-19.5 2.2,27 -7.2,0.4 -7.3,-37.4 2.4,32.6 c 0,0 -7.8,-0.7 -8.8,-3 -1,-2.3 -3.4,-31.9 -3.4,-31.9 l 1.4,35.5 c 0,0 -3.5,4.2 -17.1,-27.4 -13.6,-31.6 10.8,-50.9 10.8,-50.9 z"
               id="path1310"
               inkscape:connector-curvature="0"
               style="fill:#fec65e" /><g
               id="g1314"><path
                 d="m 5924.8,488.1 23.2,0.2 c 3.3,-1.9 7.5,-4 12.3,-6.1 21.6,-9.3 55.8,-16.9 86.7,6.9 2.2,1.7 4.3,3.5 6.5,5.5 6.1,5.6 11.2,11.5 15.6,17.6 21.6,30 24.4,64.6 27.3,101 1.6,19.8 3.3,40.2 8.2,60 1,4 5,6.4 9,5.4 0.4,-0.1 0.8,-0.2 1.2,-0.4 3.3,-1.4 5.1,-5 4.3,-8.6 -4.6,-18.6 -6.2,-38.4 -7.8,-57.6 -2.7,-33.8 -5.5,-68.6 -24.3,-99.8 -4.8,-7.9 -10.6,-15.6 -17.7,-22.9 -1.8,-1.9 -3.6,-3.7 -5.6,-5.5 -59.2,-55.1 -132.9,-2.1 -133.7,-1.5 -2.1,1.4 -3.7,3.6 -5.2,5.8 z"
                 id="path1312"
                 inkscape:connector-curvature="0"
                 style="fill:#fec65e" /></g><circle
               cx="6109.7998"
               cy="667.90002"
               r="15.4"
               id="circle1316"
               style="fill:#f7f07f" /></g><g
             id="g1356"><g
               id="g1336"><path
                 d="m 6238,937.8 41.7,63.7 -51.6,15.6 -29.5,38.3 -44,-67.1 c 0,0 13.4,-26.2 30.6,-36.7 17.3,-10.5 52.8,-13.8 52.8,-13.8 z"
                 id="path1320"
                 inkscape:connector-curvature="0"
                 style="fill:#3c8f7c" /><path
                 d="m 6043.6,937.8 -41.7,63.7 51.6,15.6 29.5,38.3 44,-67.1 c 0,0 -13.4,-26.2 -30.6,-36.7 -17.3,-10.5 -52.8,-13.8 -52.8,-13.8 z"
                 id="path1322"
                 inkscape:connector-curvature="0"
                 style="fill:#3c8f7c" /><g
                 id="g1326"><path
                   d="m 6268.3,867.6 c 0,-10.8 -10.4,-20.2 -13,-30.2 -2.8,-10.3 1.5,-23.6 -3.8,-32.7 -1.9,-3.2 -4.7,-5.7 -8,-7.8 -6.1,-4 -13.6,-7 -18.4,-11.8 -6.9,-6.9 -9.9,-19.1 -17.6,-25.1 -0.6,-0.5 -1.3,-0.9 -1.9,-1.3 -9,-5.2 -22.1,-1.1 -32.4,-3.7 -0.1,0 -0.2,-0.1 -0.3,-0.1 -10,-2.7 -19.4,-13 -30.2,-13 -0.1,0 -0.3,0 -0.4,0 -10.7,0.3 -19.9,10.4 -29.8,13 -10.4,2.8 -23.6,-1.4 -32.7,3.8 -9.2,5.3 -12.1,19 -19.6,26.4 -7.5,7.5 -21.1,10.4 -26.4,19.6 -5.3,9.1 -1,22.3 -3.8,32.7 -2.7,10 -13,19.4 -13,30.2 0,10.9 10.3,20.2 13,30.2 2.8,10.4 -1.5,23.6 3.8,32.7 0.1,0.1 0.2,0.3 0.2,0.4 5.5,8.9 18.8,11.9 26.2,19.2 0.3,0.3 0.5,0.5 0.8,0.8 6.9,7.6 10,20.5 18.8,25.6 0.9,0.5 1.9,1 2.9,1.3 8.8,3.1 20.5,0 29.7,2.5 6.8,1.8 13.3,7.2 20.1,10.4 3.3,1.5 6.6,2.6 10.1,2.6 10.8,0 20.2,-10.4 30.2,-13 10.3,-2.8 23.6,1.5 32.7,-3.8 9.2,-5.3 12.1,-19 19.6,-26.4 7.5,-7.5 21.1,-10.4 26.4,-19.6 5.3,-9.1 1,-22.3 3.8,-32.7 2.7,-10 13,-19.4 13,-30.2 z m -120.6,96.6 c -1.7,0.1 -3.4,0.1 -5.1,0.1 -16.5,0 -32.1,-4.1 -45.7,-11.4 -9.7,-5.2 -18.4,-12 -25.7,-20 -8.6,-9.4 -15.3,-20.5 -19.7,-32.7 -3.7,-10.2 -5.7,-21.2 -5.7,-32.7 0,-47.3 34,-86.7 78.9,-95.1 5.8,-1.1 11.8,-1.7 17.9,-1.7 6.9,0 13.7,0.7 20.2,2.1 10.9,2.3 21.1,6.5 30.3,12.1 15,9.2 27.3,22.4 35.4,38 6.9,13.3 10.8,28.5 10.8,44.5 0.1,51.9 -40.5,94.2 -91.6,96.8 z"
                   id="path1324"
                   inkscape:connector-curvature="0"
                   style="fill:#50bfa5" /></g><path
                 d="m 6239,858.2 v 0 c -1.2,-12.6 -4.8,-24.5 -10.4,-35.2 -5.1,-9.8 -11.9,-18.7 -19.9,-26.2 -4.8,-4.4 -10,-8.4 -15.5,-11.8 -5,-3.1 -10.2,-5.7 -15.8,-7.8 -4.7,-1.8 -9.5,-3.2 -14.5,-4.3 -6.5,-1.4 -13.3,-2.1 -20.2,-2.1 -1.9,0 -3.7,0.1 -5.6,0.2 -4.2,0.2 -8.3,0.7 -12.3,1.5 -44.9,8.4 -78.9,47.8 -78.9,95.1 0,11.5 2,22.5 5.7,32.7 1.4,3.9 3.1,7.7 4.9,11.4 4,7.7 9,14.9 14.8,21.3 3.4,3.7 7.1,7.2 11.1,10.3 4.6,3.7 9.5,6.9 14.7,9.7 5.7,3.1 11.8,5.6 18.1,7.4 8.7,2.6 18,4 27.6,4 1.7,0 3.4,0 5.1,-0.1 12.7,-0.7 24.7,-3.7 35.6,-8.8 33.2,-15.4 56.2,-48.9 56.2,-87.9 -0.3,-3.2 -0.4,-6.3 -0.7,-9.4 z m -14.5,25.3 c -3.6,18.3 -13.2,34.5 -26.6,46.5 v 0 c -14.7,13 -34.1,20.9 -55.2,20.9 -7.2,0 -14.1,-0.9 -20.7,-2.6 -12.3,-3.1 -23.4,-9 -32.8,-16.9 -10.8,-9.1 -19.2,-20.8 -24.4,-34.2 -3.5,-9.2 -5.4,-19.2 -5.4,-29.6 0,-41.3 30.1,-75.6 69.5,-82.2 4.5,-0.8 9.1,-1.2 13.9,-1.2 9.8,0 19.2,1.7 28,4.8 11.9,4.2 22.5,11.1 31.2,19.8 15,15.1 24.2,35.8 24.2,58.7 -0.2,5.5 -0.7,10.9 -1.7,16 z"
                 id="path1328"
                 inkscape:connector-curvature="0"
                 style="fill:#f7f07f" /><path
                 d="m 6226,867.6 c 0,41.4 -30.4,75.9 -70.1,82.3 v 0 c -4.3,0.7 -8.8,1.1 -13.3,1.1 -14.1,0 -27.4,-3.5 -39,-9.7 -9.8,-5.2 -18.4,-12.3 -25.3,-20.7 -8.6,-10.4 -14.7,-22.9 -17.4,-36.7 -1.1,-5.3 -1.6,-10.7 -1.6,-16.3 0,-36.4 23.5,-67.4 56.1,-78.8 8.6,-3 17.7,-4.6 27.3,-4.6 4.5,0 8.9,0.4 13.2,1 11.1,1.8 21.5,5.7 30.7,11.4 15.3,9.5 27.3,23.8 33.9,40.7 3.5,9.5 5.5,19.6 5.5,30.3 z"
                 id="path1330"
                 inkscape:connector-curvature="0"
                 style="fill:#f7f07f" /><g
                 id="g1334"><path
                   d="m 6142.6,954 c -47.6,0 -86.4,-38.8 -86.4,-86.4 0,-47.6 38.8,-86.4 86.4,-86.4 47.6,0 86.4,38.8 86.4,86.4 0,47.6 -38.7,86.4 -86.4,86.4 z m 0,-169.8 c -46,0 -83.4,37.4 -83.4,83.4 0,46 37.4,83.4 83.4,83.4 46,0 83.4,-37.4 83.4,-83.4 0,-46 -37.4,-83.4 -83.4,-83.4 z"
                   id="path1332"
                   inkscape:connector-curvature="0"
                   style="fill:#fec65e" /></g></g><path
               d="m 6228.6,823 -8.2,14.4 c -6.6,-17 -18.6,-31.3 -33.9,-40.7 l 6.7,-11.7 c 14.9,9.2 27.2,22.4 35.4,38 z"
               id="path1338"
               inkscape:connector-curvature="0"
               style="fill:#ffffff" /><path
               d="m 6155.9,949.9 -8.2,14.3 c -1.7,0.1 -3.4,0.1 -5.1,0.1 -16.5,0 -32.1,-4.1 -45.7,-11.4 l 6.7,-11.7 c 11.6,6.2 24.9,9.7 39,9.7 4.5,0 9,-0.3 13.3,-1 z"
               id="path1340"
               inkscape:connector-curvature="0"
               style="fill:#ffffff" /><path
               d="m 6220.3,837.4 -64.4,112.5 v 0 c -4.3,0.7 -8.8,1.1 -13.3,1.1 -14.1,0 -27.4,-3.5 -39,-9.7 l 82.8,-144.6 c 15.3,9.5 27.3,23.8 33.9,40.7 z"
               id="path1342"
               inkscape:connector-curvature="0"
               style="fill:#ffffff" /><path
               d="m 6162.8,772.9 -7.1,12.3 c -4.3,-0.7 -8.7,-1 -13.2,-1 -9.6,0 -18.7,1.6 -27.3,4.6 l 9.4,-16.4 c 5.8,-1.1 11.8,-1.7 17.9,-1.7 7,0.1 13.8,0.8 20.3,2.2 z"
               id="path1344"
               inkscape:connector-curvature="0"
               style="fill:#ffffff" /><path
               d="m 6155.8,785.2 -77.5,135.3 -7.1,12.4 c -8.6,-9.4 -15.3,-20.5 -19.7,-32.7 l 9.4,-16.4 54.5,-95.1 c 8.6,-3 17.7,-4.6 27.3,-4.6 4.4,0.1 8.8,0.5 13.1,1.1 z"
               id="path1346"
               inkscape:connector-curvature="0"
               style="fill:#ffffff" /><path
               d="m 6197.8,930 -14.6,25.4 c -10.9,5.1 -22.9,8.1 -35.6,8.8 -1.7,0.1 -3.4,0.1 -5.1,0.1 -9.6,0 -18.9,-1.4 -27.6,-4 l 6.9,-12 c 6.6,1.7 13.6,2.6 20.7,2.6 21.3,0 40.6,-7.9 55.3,-20.9 z"
               id="path1348"
               inkscape:connector-curvature="0"
               style="fill:#ffffff" /><path
               d="m 6239,858.2 v 0 l -14.5,25.3 c 1,-5.2 1.5,-10.5 1.5,-15.9 0,-22.9 -9.3,-43.6 -24.2,-58.7 l 6.9,-12 c 8,7.5 14.8,16.4 19.9,26.2 5.5,10.7 9.1,22.5 10.4,35.1 z"
               id="path1350"
               inkscape:connector-curvature="0"
               style="fill:#ffffff" /><path
               d="m 6089,931.4 -6.8,11.8 c -4,-3.2 -7.7,-6.6 -11.1,-10.3 -5.8,-6.4 -10.8,-13.5 -14.8,-21.3 l 8.3,-14.4 c 5.2,13.4 13.7,25.1 24.4,34.2 z"
               id="path1352"
               inkscape:connector-curvature="0"
               style="fill:#ffffff" /><path
               d="m 6177.4,777.2 -6.8,11.8 c -8.7,-3.1 -18.2,-4.8 -28,-4.8 -4.7,0 -9.3,0.4 -13.9,1.2 L 6137,771 c 1.9,-0.1 3.7,-0.2 5.6,-0.2 6.9,0 13.7,0.7 20.2,2.1 5,1.1 9.9,2.5 14.6,4.3 z"
               id="path1354"
               inkscape:connector-curvature="0"
               style="fill:#ffffff" /></g></g></g></g></g></svg>